<svg width="748" height="443" viewBox="0 0 748 443" fill="none" xmlns="http://www.w3.org/2000/svg">
<path d="M705.318 212.336C709.653 213.304 714.267 209.347 715.748 203.391L727.903 156.064C729.455 149.819 726.975 143.802 722.429 142.787L719.74 142.187C715.209 141.176 710.42 145.535 709.154 151.823L700.471 199.863C699.256 205.901 700.969 211.365 705.318 212.336Z" fill="#E06F60"/>
<path d="M704.209 213.544C704.465 213.633 704.731 213.708 704.999 213.768C710.142 214.915 715.488 210.513 717.171 203.745L729.323 156.429C730.975 149.785 728.444 143.27 723.564 141.587C723.298 141.495 723.024 141.417 722.749 141.356L720.059 140.756C717.932 140.281 715.728 140.732 713.685 142.061C710.759 143.963 708.529 147.504 707.717 151.534L699.031 199.589C697.665 206.397 699.745 212.004 704.209 213.544Z" fill="#252525"/>
<path d="M705.675 267.421C705.049 272.576 702.939 276.871 699.284 276.514C695.617 276.156 698.788 274.241 699.189 269.044L700.436 253.939L707.81 254.175L705.675 267.421Z" fill="#C8C8C7"/>
<path d="M707.733 193.736L710.001 193.958C713.833 194.332 716.466 199.122 715.808 204.528L707.809 254.174L700.436 253.939L699.996 202.938C700.413 197.526 703.914 193.363 707.733 193.736Z" fill="#E06F60"/>
<path d="M702.653 194.032C704.235 192.703 706.041 192.096 707.876 192.275L710.143 192.496C710.64 192.545 711.132 192.652 711.606 192.815C715.556 194.178 717.936 199.178 717.264 204.704L717.261 204.732L708.502 259.093C708.269 260.537 706.9 261.511 705.46 261.257L701.097 260.373C699.764 260.138 698.83 258.926 698.941 257.576L698.534 202.824C698.809 199.253 700.349 195.966 702.653 194.032Z" fill="#252525"/>
<path d="M698.521 268.956C698.521 268.956 692.029 271.154 689.823 271.268C687.617 271.384 682.898 270.769 682.477 271.238C682.057 271.707 682.176 273.413 685.051 274.823C687.925 276.232 696.109 277.322 697.28 277.561C698.45 277.798 705.112 279.904 705.234 279.38C705.356 278.855 706.567 271.717 706.375 271.032C706.184 270.347 700.909 268.11 698.521 268.956Z" fill="#252525"/>
<path d="M676.012 119.27C676.012 119.27 670.281 118.892 669.037 118.695C668.362 118.586 663.512 117.843 661.465 118.207C659.752 118.512 659.321 119.625 659.321 119.625C659.487 119.641 668.587 123.275 669.502 123.243C670.418 123.209 676.012 119.27 676.012 119.27Z" fill="#BF815D"/>
<path d="M681.546 118.055C680.529 117.44 669.156 116.494 667.333 116.425C666.207 116.382 666.116 117.891 666.574 118.13C667.961 118.849 672.871 120.176 673.465 120.315C674.057 120.454 683.394 119.172 681.546 118.055Z" fill="#D09572"/>
<path d="M680.658 118.023C683.68 117.801 685.596 122.7 679.623 124.991C677.958 125.63 669.64 126.104 668.446 126.212C667.252 126.319 659.664 121.639 659.147 121.148C658.63 120.658 659.259 119.506 659.54 119.435C660.059 119.304 667.424 122.053 668.939 122.406C669.614 122.563 678.221 118.202 680.658 118.023Z" fill="#D09572"/>
<path d="M675.923 121.033C675.505 123.468 677.19 124.572 679.623 124.991L711.639 131.704C714.072 132.122 717.949 129.385 718.367 126.951C718.784 124.516 715.945 121.256 713.511 120.839L681.093 118.112C678.659 117.694 676.34 118.599 675.923 121.033Z" fill="#D09572"/>
<path d="M713.221 131.956C717.152 132.814 719.925 130.097 720.882 125.71L728.835 94.5634C729.792 90.1764 727.381 85.9241 723.449 85.0662C719.518 84.2079 715.555 87.0687 714.598 91.4556L708.681 122.562C707.724 126.949 709.289 131.098 713.221 131.956Z" fill="#D09572"/>
<path d="M721.044 83.0393C725.785 80.5718 731.347 84.4724 730.662 89.7739C730.656 89.8238 730.649 89.874 730.642 89.9246C729.982 94.9755 723.357 117.318 722.972 119.147C722.588 120.976 711.166 123.619 707.984 115.733C707.984 115.733 711.673 97.0484 713.863 90.5451C714.885 87.5105 717.796 84.7301 721.044 83.0393Z" fill="#433967"/>
<path d="M723.689 212.359C728.127 212.172 731.56 207.156 731.451 201.02L730.954 152.158C730.839 145.724 726.887 140.553 722.234 140.75L719.481 140.866C714.843 141.061 711.344 146.512 711.747 152.913L715.782 201.565C716.169 207.711 719.236 212.546 723.689 212.359Z" fill="#EE7666"/>
<path d="M722.93 213.813C723.2 213.832 723.477 213.836 723.751 213.824C729.015 213.602 733.041 207.967 732.917 200.993L732.42 152.143C732.299 145.298 728.169 139.659 723.02 139.296C722.74 139.276 722.455 139.272 722.173 139.284L719.42 139.4C717.243 139.492 715.23 140.498 713.6 142.31C711.266 144.904 710.026 148.902 710.285 153.005L714.32 201.672C714.761 208.602 718.22 213.48 722.93 213.813Z" fill="#333333"/>
<path d="M738.277 265.475C739.005 270.617 738.077 275.311 734.454 275.912C730.819 276.515 733.388 273.844 732.431 268.721L729.73 253.808L736.914 252.127L738.277 265.475Z" fill="#D6D6D5"/>
<path d="M721.212 193.765L723.46 193.392C727.259 192.762 731.04 196.709 731.803 202.101L736.914 252.127L729.73 253.808L716.117 204.656C715.121 199.321 717.426 194.393 721.212 193.765Z" fill="#EE7666"/>
<path d="M716.381 195.367C717.566 193.674 719.153 192.62 720.972 192.318L723.22 191.945C723.712 191.863 724.215 191.84 724.715 191.875C728.883 192.169 732.475 196.383 733.255 201.895L733.259 201.923L738.855 256.7C739.003 258.155 737.932 259.451 736.476 259.577L732.032 259.853C730.684 259.97 729.468 259.041 729.227 257.709L714.676 204.925C714.019 201.405 714.656 197.831 716.381 195.367Z" fill="#333333"/>
<path d="M731.764 268.81C731.764 268.81 726.061 272.613 723.959 273.295C721.859 273.977 717.141 274.604 716.856 275.166C716.571 275.728 717.128 277.345 720.269 277.963C723.41 278.581 731.597 277.516 732.789 277.444C733.981 277.37 740.961 277.681 740.943 277.143C740.926 276.604 740.249 269.396 739.887 268.784C739.526 268.171 733.852 267.375 731.764 268.81Z" fill="#333333"/>
<path d="M704.967 93.1676L708.18 84.2119C708.18 84.2119 715.19 77.1235 724.588 77.3572L725.847 87.9753L704.967 93.1676Z" fill="#EE7666"/>
<path d="M715.084 88.0131H717.815C720.481 88.0131 722.642 85.8517 722.642 83.1852V65.0039H710.258V83.1852C710.258 85.8517 712.419 88.0131 715.084 88.0131Z" fill="#EE7666"/>
<path d="M710.258 71.957V77.8527C715.205 76.0597 716.348 69.9607 716.575 68.2383L710.258 71.957Z" fill="#EE7765"/>
<path d="M716.627 67.7773C716.627 67.7773 716.614 67.9475 716.575 68.2375L716.938 68.0243L716.627 67.7773Z" fill="#EE7765"/>
<path d="M708.735 74.6582C713.484 74.6582 717.334 70.7002 717.334 65.8177V49.8312L709.396 48.9922C706.445 48.9922 702.487 54.2167 702.487 57.2505V68.2347C702.487 71.7824 705.284 74.6582 708.735 74.6582Z" fill="#EE7666"/>
<path d="M703.012 59.6328L700.19 64.4445C699.852 64.9294 700.199 65.5938 700.79 65.5936L705.029 65.5916L703.012 59.6328Z" fill="#EE7666"/>
<path d="M706.916 49.3206C712.142 47.3898 715.054 46.901 715.928 46.788C716.129 46.7621 716.326 46.7124 716.522 46.6588C718.316 46.1662 720.469 46.7676 722.103 47.446C724.29 48.3541 726.192 49.9164 727.249 52.0364C729.337 56.2206 726.537 62.9975 724.382 67.137C723.362 69.0979 720.863 69.7311 719.033 68.4913L716.637 66.8679C715.587 66.1563 714.975 64.9556 715.017 63.6873L715.304 54.905L715.258 54.864L714.559 53.181C714.086 52.0404 713.074 51.2116 711.863 50.9722L711.006 50.8028C710.67 50.7365 710.33 50.717 709.988 50.7452C708.051 50.9058 701.436 51.3456 706.916 49.3206Z" fill="#333333"/>
<path d="M702.221 54.7923C704.903 55.9847 708.829 54.7541 711.548 53.5372C712.65 53.0444 713.867 53.9403 713.728 55.1389C713.52 56.9195 713.442 58.4549 715.098 61.3496C715.098 61.3496 721.007 53.0242 720.524 51.6339C720.551 51.6165 721.312 51.6048 721.312 51.6048C721.312 51.6048 720.414 46.1368 715.837 44.6256C715.072 44.373 714.208 44.5558 713.649 45.136C713.405 45.3881 713.227 45.6964 713.246 46.0515C710.616 44.454 703.329 42.8516 700.886 45.1419C697.425 48.3876 699.235 53.6874 702.221 54.7923Z" fill="#333333"/>
<path d="M703.886 60.2694C703.886 60.758 704.282 61.1541 704.771 61.1541C705.259 61.1541 705.655 60.758 705.655 60.2694C705.655 59.7808 705.259 59.3848 704.771 59.3848C704.282 59.3848 703.886 59.7808 703.886 60.2694Z" fill="#333333"/>
<path d="M703.255 56.7966L703.25 56.5417C703.243 56.1352 703.574 55.8032 703.98 55.8107L706.434 55.8548C706.838 55.8621 707.227 56.0077 707.536 56.2671C707.973 56.7702 707.548 57.5453 706.889 57.4473L706.754 57.4271C706.712 57.4209 706.669 57.4184 706.627 57.4197L703.994 57.5C703.595 57.5122 703.263 57.1959 703.255 56.7966Z" fill="#333333"/>
<path d="M702.629 67.8565C702.518 67.8565 702.429 67.7667 702.429 67.656C702.429 67.5455 702.518 67.4554 702.629 67.4554C704.287 67.4554 704.94 66.9856 704.946 66.9811C705.034 66.9155 705.159 66.9329 705.226 67.021C705.293 67.109 705.276 67.2332 705.189 67.3001C705.159 67.3228 704.443 67.8565 702.629 67.8565Z" fill="#EE7666"/>
<path d="M715.635 64.3719C717.066 64.3719 718.225 63.2119 718.225 61.7813V60.3641C718.225 58.9332 717.066 57.7734 715.635 57.7734C714.205 57.7734 713.045 58.9335 713.045 60.3641V61.7813C713.045 63.2122 714.205 64.3719 715.635 64.3719Z" fill="#EE7666"/>
<path d="M734.027 141.646L734.035 143.94C734.188 154.249 727.798 160.437 719.879 160.554L717.551 160.589C709.631 160.706 703.061 154.71 702.909 144.4L702.899 141.646H734.027V141.646Z" fill="#333333"/>
<path d="M707.788 83.5117C705.038 87.9595 701.459 89.3163 701.474 111.41C701.459 125.413 701.563 138.893 701.563 138.893C701.563 138.893 701.009 141.505 702.661 141.729C702.661 141.729 708.285 141.933 718.534 141.933C718.534 141.933 729.927 141.945 733.577 141.406C733.577 141.406 735.435 141.542 735.431 138.893C735.431 138.893 734.844 125.851 735.092 109.447C735.092 109.447 735.734 97.1564 733.634 88.2024C732.271 82.3881 727.085 78.7721 724.588 77.3559C724.588 77.3559 722.902 76.5875 721.875 77.6722C720.848 78.7569 712.347 85.8986 708.181 84.2105L707.788 83.5117Z" fill="#544780"/>
<path d="M707.105 115.471C710.038 109.903 707.903 103.011 702.336 100.077C696.77 97.1433 689.88 99.2792 686.947 104.847C684.015 110.416 686.15 117.308 691.716 120.241C697.283 123.175 704.173 121.039 707.105 115.471Z" fill="#F9AA55"/>
<path d="M702.645 73.2206L690.692 146.936L617 134.979L621.152 109.371C627.324 110.315 633.115 106.108 634.117 99.9304C635.118 93.7531 630.954 87.93 624.8 86.874L628.953 61.2637L702.645 73.2206Z" fill="#F9AA55"/>
<path d="M699.08 134.937C697.895 134.836 687.279 139.024 685.613 139.769C684.585 140.23 685.172 141.623 685.687 141.634C687.249 141.664 692.24 140.681 692.833 140.543C693.426 140.404 701.23 135.12 699.08 134.937Z" fill="#EE7666"/>
<path d="M698.269 135.303C700.88 133.766 704.767 137.311 700.424 142.009C699.214 143.32 691.965 147.429 690.943 148.054C689.919 148.678 681.044 147.842 680.363 147.631C679.683 147.42 679.737 146.109 679.957 145.921C680.365 145.574 688.186 144.777 689.7 144.423C690.375 144.264 696.163 136.543 698.269 135.303Z" fill="#EE7666"/>
<path d="M695.355 140.1C696.058 142.467 698.058 142.712 700.424 142.009L732.103 133.852C734.47 133.149 736.735 128.978 736.032 126.61C735.33 124.243 731.341 122.577 728.974 123.28L698.698 135.19C696.331 135.893 694.652 137.732 695.355 140.1Z" fill="#EE7666"/>
<path d="M733.633 133.377C737.538 132.406 738.822 128.742 737.739 124.385L731.087 92.9341C730.004 88.5766 725.96 85.8315 722.055 86.8028C718.15 87.774 715.863 92.0941 716.946 96.4516L725.406 126.964C726.489 131.322 729.728 134.349 733.633 133.377Z" fill="#EE7666"/>
<path d="M719.002 86.0497C722.161 81.7381 728.874 82.7724 730.606 87.8295C730.622 87.8772 730.639 87.9251 730.655 87.9732C732.299 92.7946 736.244 115.763 736.709 117.573C737.173 119.383 728.101 126.811 721.759 121.149C721.759 121.149 716.798 102.761 715.884 95.9594C715.458 92.7864 716.837 89.0043 719.002 86.0497Z" fill="#544780"/>
<path d="M733.527 120.685C730.465 122.762 726.338 123.807 723.021 121.679C722.781 121.526 722.549 121.361 722.328 121.181C722.247 121.115 722.033 120.933 722.141 121.123C722.126 121.097 722.125 121.053 722.117 121.024C722.07 120.846 722.029 120.666 721.985 120.486C721.8 119.735 721.616 118.984 721.432 118.232C720.797 115.633 720.166 113.033 719.538 110.433C718.765 107.228 717.999 104.022 717.245 100.812C716.592 98.0272 715.942 95.2403 715.338 92.4441C715.281 92.1832 715.225 91.9223 715.17 91.6612C715.041 91.0506 714.106 91.309 714.235 91.9191C714.813 94.6527 715.446 97.375 716.082 100.096C716.854 103.401 717.643 106.704 718.437 110.004C719.095 112.736 719.758 115.467 720.425 118.196C720.623 119.005 720.821 119.813 721.019 120.622C721.07 120.828 721.118 121.036 721.172 121.242C721.257 121.565 721.477 121.737 721.746 121.951C723.385 123.251 725.4 123.916 727.492 123.829C729.393 123.75 731.249 123.128 732.906 122.209C733.287 121.997 733.656 121.767 734.017 121.523C734.53 121.174 734.046 120.333 733.527 120.685Z" fill="#3C3463"/>
<path d="M373.29 118.804C371.3 119.124 370.946 121.053 371.338 123.491L375.563 155.932C375.955 158.371 379.189 161.252 381.179 160.932C383.168 160.612 384.837 156.95 384.445 154.511L377.045 122.862C376.653 120.424 375.279 118.484 373.29 118.804Z" fill="#EE7666"/>
<path d="M376.699 122.334L376.737 120.183C376.764 118.678 376.444 117.189 375.805 115.826C375.162 114.453 374.324 112.79 373.693 111.987C373.693 111.987 372.08 111.225 374.039 115.069C374.039 115.069 371.591 110.179 369.619 109.032C369.3 108.845 368.913 109.146 369.024 109.498C369.229 110.151 369.771 111.401 371.13 113.78C371.13 113.78 368.937 111.77 368.035 109.397C367.829 108.856 366.997 108.986 366.99 109.566C366.985 109.994 367.125 110.661 367.527 111.69L369.245 114.863C369.245 114.863 367.357 112.288 366.671 110.762C366.48 110.339 365.844 110.42 365.791 110.88C365.716 111.531 366.027 112.763 367.463 115.093L365.774 112.21C365.545 111.819 364.937 111.994 364.963 112.447C365.002 113.096 365.442 114.35 366.893 116.755C366.893 116.755 369.034 121.758 371.862 123.31L372.838 125.058L377.172 123.331L376.699 122.334Z" fill="#EE7666"/>
<path d="M337.322 300.974C333.34 301.369 329.686 296.844 329.062 290.746L324.274 248.16C323.62 241.766 326.54 236.124 330.715 235.71L333.186 235.465C337.348 235.053 341.111 240 341.504 246.399L343.11 289.24C343.487 295.384 341.318 300.579 337.322 300.974Z" fill="#EE7666"/>
<path d="M338.17 302.317C337.931 302.371 337.685 302.411 337.439 302.436C332.715 302.903 328.46 297.842 327.751 290.912L322.964 248.338C322.268 241.535 325.291 235.405 329.843 234.372C330.091 234.316 330.345 234.275 330.598 234.25L333.069 234.005C335.022 233.811 336.937 234.546 338.605 236.13C340.993 238.396 342.568 242.198 342.82 246.3L344.427 289.155C344.848 296.084 342.335 301.372 338.17 302.317Z" fill="#333333"/>
<path d="M332.091 361.464C332.046 366.657 331.916 368.564 335.22 368.687C335.22 368.687 336.612 368.296 336.863 363.092L337.521 347.953L331.739 348.052L332.091 361.464Z" fill="#D6D6D5"/>
<path d="M337.347 282.217L335.297 282.141C331.833 282.013 328.922 286.42 328.875 291.865L331.739 348.052L337.521 347.953L343.174 292.35C343.436 286.93 340.8 282.346 337.347 282.217Z" fill="#EE7666"/>
<path d="M341.847 283.174C340.59 281.65 339.05 280.813 337.391 280.751L335.341 280.675C334.892 280.659 334.441 280.701 333.999 280.801C330.314 281.637 327.604 286.285 327.555 291.851L327.555 291.879L330.545 352.84C330.583 354.303 331.691 355.447 333.006 355.382L336.369 355.557C337.586 355.497 338.562 354.418 338.621 353.065L344.492 292.428C344.665 288.851 343.676 285.392 341.847 283.174Z" fill="#333333"/>
<path d="M333.96 360.673C334.754 360.698 335.558 360.744 336.363 360.759C336.486 360.761 336.609 360.762 336.732 360.763C336.972 360.765 337.212 360.767 337.452 360.765C337.453 360.765 337.455 360.765 337.457 360.765C337.771 360.762 338.071 360.887 338.267 361.113C339.815 362.899 342.482 365.618 343.182 365.976C344.534 366.666 344.335 368.076 344.219 369.11C344.21 369.188 344.199 369.264 344.185 369.337C344.189 369.355 344.305 369.943 343.982 370.05C343.936 370.065 343.837 370.096 343.686 370.137C343.066 370.577 341.704 370.853 338.614 370.929C334.574 371.027 331.949 370.962 331.101 370.054C331.086 370.041 331.081 370.033 331.081 370.033C331.081 370.033 331.08 370.031 331.08 370.031C330.882 369.808 330.787 369.535 330.803 369.203C330.885 367.486 330.721 365.401 330.803 364.209C330.838 363.696 330.376 360.559 333.96 360.673Z" fill="#333333"/>
<path d="M310.277 300.974C314.26 301.369 317.913 296.844 318.537 290.746L323.325 248.16C323.979 241.766 321.059 236.124 316.884 235.71L314.413 235.465C310.251 235.053 306.488 240 306.095 246.399L304.489 289.24C304.112 295.384 306.281 300.579 310.277 300.974Z" fill="#EE7666"/>
<path d="M309.429 302.318C309.668 302.372 309.914 302.412 310.16 302.436C314.884 302.904 319.139 297.842 319.848 290.912L324.635 248.338C325.331 241.535 322.309 235.405 317.756 234.372C317.508 234.316 317.254 234.275 317.001 234.25L314.53 234.005C312.577 233.811 310.662 234.546 308.994 236.13C306.606 238.396 305.031 242.198 304.779 246.3L303.172 289.155C302.751 296.084 305.264 301.372 309.429 302.318Z" fill="#333333"/>
<path d="M301.494 361.31C300.55 366.416 300.314 368.313 297.048 367.804L296.081 370.291C292.803 369.78 295.756 367.155 296.5 361.999L298.736 347.012L304.393 348.211L301.494 361.31Z" fill="#D6D6D5"/>
<path d="M311.424 282.512L313.45 282.828C316.876 283.362 318.894 288.243 317.904 293.598L304.393 348.211L298.736 347.011L303.774 291.349C304.549 285.978 308.01 281.98 311.424 282.512Z" fill="#EE7666"/>
<path d="M306.824 282.594C308.348 281.338 310.019 280.809 311.659 281.065L313.686 281.381C314.13 281.45 314.565 281.577 314.98 281.76C318.439 283.283 320.214 288.361 319.202 293.835L319.197 293.863L304.655 353.138C304.339 354.566 303.033 355.479 301.754 355.165L298.42 354.696C297.236 354.405 296.484 353.159 296.684 351.821L302.466 291.175C302.977 287.631 304.606 284.423 306.824 282.594Z" fill="#333333"/>
<path d="M326.723 182.123L324.319 182.143C321.973 182.162 320.055 180.275 320.036 177.928L319.905 161.925L330.805 161.836L330.936 177.839C330.955 180.186 329.069 182.104 326.723 182.123Z" fill="#EE7666"/>
<path d="M324.948 164.544L325.268 164.729C325.232 164.474 325.22 164.324 325.22 164.324L324.948 164.544Z" fill="#EE7765"/>
<path d="M330.898 173.146L330.855 167.956L325.268 164.729C325.48 166.243 326.53 171.603 330.898 173.146Z" fill="#EE7765"/>
<path d="M333.132 168.713C328.947 169.83 324.624 167.247 323.477 162.944L319.72 148.856L326.519 146.25C329.12 145.556 333.836 149.23 334.548 151.903L337.129 161.583C337.963 164.709 336.173 167.902 333.132 168.713Z" fill="#EE7666"/>
<path d="M334.646 154.127L338.263 157.704C338.674 158.052 338.525 158.719 338.004 158.858L334.268 159.853L334.646 154.127Z" fill="#EE7666"/>
<path d="M328.781 145.954C323.722 145.481 321.041 145.735 320.244 145.841C320.061 145.866 319.875 145.868 319.69 145.867C317.993 145.855 316.237 146.891 314.957 147.873C313.242 149.188 311.934 151.011 311.5 153.128C310.644 157.307 314.703 162.621 317.575 165.762C318.935 167.25 321.286 167.221 322.607 165.698L324.337 163.704C325.095 162.83 325.352 161.628 325.018 160.52L322.701 152.848L322.732 152.801L322.952 151.154C323.101 150.037 323.798 149.069 324.809 148.573L325.525 148.222C325.805 148.085 326.101 147.988 326.408 147.932C328.154 147.619 334.087 146.451 328.781 145.954Z" fill="#333333"/>
<path d="M334.205 149.673C332.121 151.355 328.373 151.193 325.69 150.76C324.604 150.585 323.741 151.66 324.146 152.684C324.747 154.205 325.177 155.539 324.397 158.48C324.397 158.48 317.234 152.532 317.333 151.193C317.305 151.184 316.632 151.353 316.632 151.353C316.632 151.353 316.138 146.323 319.817 143.915C320.432 143.513 321.236 143.471 321.865 143.851C322.139 144.016 322.369 144.245 322.435 144.563C324.378 142.536 330.423 139.411 333.114 140.855C336.926 142.901 336.577 147.998 334.205 149.673Z" fill="#333333"/>
<path d="M334.024 154.892C334.139 155.323 333.883 155.765 333.452 155.88C333.022 155.995 332.58 155.739 332.465 155.308C332.35 154.877 332.606 154.435 333.037 154.32C333.467 154.206 333.909 154.461 334.024 154.892Z" fill="#333333"/>
<path d="M333.764 151.683L333.708 151.457C333.62 151.097 333.25 150.882 332.893 150.984L330.741 151.6C330.387 151.701 330.079 151.921 329.867 152.223C329.6 152.769 330.157 153.352 330.715 153.111L330.829 153.061C330.865 153.046 330.902 153.034 330.94 153.025L333.278 152.476C333.632 152.393 333.851 152.037 333.764 151.683Z" fill="#333333"/>
<path d="M324.168 159.795C323.045 160.095 321.891 159.427 321.591 158.303L321.294 157.189C320.994 156.065 321.662 154.911 322.786 154.611C323.91 154.311 325.064 154.979 325.364 156.103L325.661 157.217C325.96 158.341 325.292 159.496 324.168 159.795Z" fill="#EE7666"/>
<path d="M289.954 149.29C286.821 151.275 286.594 155.149 288.574 159.056L301.861 187.565C303.842 191.472 307.986 193.03 311.119 191.046C314.252 189.061 315.186 184.285 313.206 180.379L298.585 153.259C296.605 149.352 293.086 147.306 289.954 149.29Z" fill="#EE7666"/>
<path d="M301.303 156.522L291.233 163.313C290.867 163.561 290.734 164.083 290.928 164.509L302.367 189.603C304.371 193.59 308.943 194.936 312.585 192.611C312.64 192.577 312.695 192.54 312.749 192.503C316.266 190.132 317.525 185.11 315.552 181.183L302.424 156.832C302.191 156.4 301.69 156.262 301.303 156.522Z" fill="#544780"/>
<path d="M323.931 238.379C325.723 238.379 325.726 241.165 323.931 241.165C322.138 241.165 322.135 238.379 323.931 238.379Z" fill="#987F77"/>
<path d="M330.428 173.438C330.714 173.448 330.997 173.51 331.266 173.622C333.54 174.566 344.58 179.201 344.918 180.329C345.294 181.587 344.157 194.231 339.827 216.14C339.353 218.54 338.394 237.687 338.062 239.108C335.095 251.801 315.876 249.714 309.419 243.287C308.2 242.074 309.652 227.485 309.294 225.043C308.936 222.601 306.383 213.668 305.671 208.023C304.984 202.591 302.405 188.14 301.324 182.156C301.05 180.643 301.816 179.138 303.105 178.653L316.65 173.555C316.887 173.466 317.132 173.415 317.381 173.403C318.644 173.345 323.051 173.192 330.428 173.438Z" fill="#EE7666"/>
<path d="M306.39 233.994C306.39 233.994 304.898 247.24 305.893 249.617C306.888 251.995 341.112 257.995 341.41 248.485C341.709 238.976 338.027 231.051 338.027 231.051L306.39 233.994Z" fill="#333333"/>
<path d="M340.403 216.289C340.157 217.525 340.385 223.946 340.034 229.401C339.658 235.227 343.58 240.426 343.419 241.112C341.967 247.326 307.042 245.805 303.878 242.653C303.001 241.78 308.097 224.177 305.088 208.12C304.085 202.77 301.824 188.254 300.747 182.291C300.413 180.447 301.348 178.609 302.921 178.016C302.921 178.016 313.54 174.03 316.296 173.016C316.483 172.948 316.672 173.106 316.672 173.329L316.67 174.5C316.67 178.073 320.098 180.967 324.329 180.967C328.559 180.967 331.989 178.073 331.989 174.5L331.988 173.284C331.988 173.248 332.018 173.221 332.049 173.234C333.562 173.866 336.376 175.062 339.037 176.285C345.173 179.104 345.348 179.688 345.476 180.113C345.988 181.82 344.473 195.685 340.403 216.289Z" fill="#544780"/>
<path d="M366.762 89.652C371.211 85.2016 371.211 77.9859 366.762 73.5355C362.313 69.085 355.099 69.085 350.65 73.5355C346.201 77.9859 346.201 85.2016 350.65 89.652C355.099 94.1025 362.313 94.1025 366.762 89.652Z" fill="#F9AA55"/>
<path d="M358.342 44.25V118.929H283.687V92.9865C289.93 92.9297 294.973 87.8489 294.973 81.5908C294.973 75.3328 289.93 70.2519 283.687 70.1951V44.25H358.342Z" fill="#F9AA55"/>
<path d="M306.496 120.501C305.819 119.524 296.457 113.676 294.931 112.809C293.989 112.274 293.455 113.524 293.77 113.931C294.73 115.161 298.493 118.472 298.954 118.854C299.415 119.235 307.725 122.275 306.496 120.501Z" fill="#EE7666"/>
<path d="M305.752 120.081C308.383 121.23 308.523 126.27 302.761 125.583C301.155 125.392 293.954 122.113 292.909 121.676C291.863 121.238 286.844 113.872 286.555 113.223C286.265 112.575 287.147 111.868 287.407 111.932C287.887 112.05 293.302 117.665 294.481 118.638C295.006 119.071 303.63 119.154 305.752 120.081Z" fill="#EE7666"/>
<path d="M306.446 121.172C304.593 119.965 303.213 121.184 302.175 123.338L287.53 151.279C286.492 153.434 287.596 158.004 289.449 159.211C291.301 160.419 294.76 158.831 295.798 156.676L307.328 127.023C308.366 124.868 308.298 122.379 306.446 121.172Z" fill="#EE7666"/>
<path d="M357.56 149.29C360.692 151.275 360.919 155.149 358.939 159.056L345.652 187.565C343.672 191.472 339.527 193.03 336.394 191.046C333.262 189.061 332.327 184.285 334.308 180.379L348.928 153.259C350.908 149.352 354.427 147.306 357.56 149.29Z" fill="#EE7666"/>
<path d="M346.21 156.522L356.28 163.313C356.646 163.561 356.78 164.083 356.585 164.509L345.145 189.603C343.142 193.59 338.57 194.936 334.928 192.611C334.873 192.577 334.818 192.54 334.763 192.503C331.247 190.132 329.988 185.11 331.961 181.183L345.089 156.832C345.322 156.4 345.824 156.262 346.21 156.522Z" fill="#544780"/>
<path d="M341.017 120.501C341.694 119.524 351.056 113.676 352.581 112.809C353.524 112.274 354.058 113.524 353.742 113.931C352.783 115.161 349.02 118.472 348.559 118.854C348.098 119.235 339.789 122.275 341.017 120.501Z" fill="#EE7666"/>
<path d="M341.761 120.081C339.13 121.23 338.99 126.27 344.752 125.583C346.359 125.392 353.56 122.113 354.605 121.676C355.65 121.238 360.669 113.872 360.959 113.223C361.249 112.575 360.366 111.868 360.106 111.932C359.626 112.05 354.211 117.665 353.033 118.638C352.507 119.071 343.883 119.154 341.761 120.081Z" fill="#EE7666"/>
<path d="M341.068 121.172C342.92 119.965 344.3 121.184 345.339 123.338L359.983 151.279C361.021 153.434 359.918 158.004 358.065 159.211C356.212 160.419 352.754 158.831 351.716 156.676L340.186 127.023C339.148 124.868 339.215 122.379 341.068 121.172Z" fill="#EE7666"/>
<path d="M333.54 159.872C333.767 160.329 334.136 160.707 334.599 160.927C335.109 161.169 335.696 161.191 336.232 161.029C336.38 160.985 336.541 161.102 336.573 161.244C336.609 161.404 336.506 161.541 336.358 161.586C335.061 161.978 333.639 161.354 333.038 160.142C332.875 159.813 333.377 159.543 333.54 159.872Z" fill="#EE7666"/>
<path d="M294.611 363.45C294.611 363.45 288.811 367.103 286.693 367.729C284.575 368.357 279.843 368.86 279.543 369.414C279.244 369.969 279.758 371.6 282.882 372.299C286.005 372.999 294.217 372.148 295.412 372.107C296.605 372.065 303.574 372.558 303.57 372.019C303.567 371.48 303.079 364.257 302.733 363.635C302.388 363.014 296.736 362.07 294.611 363.45Z" fill="#252525"/>
<path d="M405.001 364.761L408.429 364.499L412.582 319.849C412.874 314.51 412.645 309.121 411.904 303.849C411.038 297.685 410.873 291.367 411.417 285.164L412.799 269.416C413.687 259.295 412.224 239.876 409.437 230.445L394.452 231.847L399.469 293.285L405.001 364.761Z" fill="#333333"/>
<path d="M404.035 364.731L408.912 364.562C408.912 364.562 410.762 369.946 408.492 370.451C406.221 370.956 403.278 370.367 398.821 370.956C394.364 371.545 389.991 371.376 392.934 368.096C395.877 364.815 403.194 366.076 404.035 364.731Z" fill="#21221B"/>
<path d="M421.739 364.761L425.167 364.499L429.32 319.849C429.612 314.51 429.383 309.121 428.642 303.849C427.776 297.685 427.611 291.367 428.155 285.164L429.537 269.416C430.425 259.295 428.962 239.876 426.175 230.445L411.19 231.847L416.207 293.285L421.739 364.761Z" fill="#333333"/>
<path d="M376.29 149.612C374.55 152.19 375.473 155.957 378.023 159.28L395.783 183.782C398.334 187.105 401.812 187.709 403.551 185.132C405.291 182.554 404.633 177.77 402.083 174.447L383.735 151.564C381.185 148.241 378.029 147.035 376.29 149.612Z" fill="#EE7666"/>
<path d="M404.158 185.541C403.323 186.783 402.079 187.464 400.655 187.464C398.768 187.464 396.779 186.284 395.202 184.229L381.678 168.866C381.327 168.381 381.282 167.739 381.562 167.21L386.826 155.593C387.29 154.716 387.729 155.377 388.35 156.151L402.654 173.987C405.434 177.609 406.09 182.681 404.158 185.541Z" fill="#F9AA55"/>
<path d="M446.707 105.547C451.156 101.096 451.156 93.8805 446.707 89.43C442.258 84.9796 435.044 84.9795 430.595 89.43C426.146 93.8805 426.146 101.096 430.595 105.547C435.044 109.997 442.258 109.997 446.707 105.547Z" fill="#544780"/>
<path d="M446.449 60.9662L430.144 133.843L357.291 117.533L362.955 92.2163C369.06 93.5247 375.091 89.6683 376.457 83.5614C377.823 77.4545 374.011 71.3945 367.932 69.975L373.596 44.6562L446.449 60.9662Z" fill="#544780"/>
<path d="M390.841 241.134L410.6 253.646L432.572 243.583C431.915 239.429 428.407 232.764 425.847 226.645C425.444 225.69 425.073 224.754 424.732 223.836H397.572C397.175 224.754 396.779 225.696 396.394 226.645C393.462 233.744 390.841 241.134 390.841 241.134Z" fill="#333333"/>
<path d="M418.565 233.07C419.089 235.402 420.329 237.535 422.121 239.121C424.01 240.794 426.466 241.777 428.98 241.918C429.377 241.94 429.379 242.56 428.98 242.538C426.336 242.389 423.781 241.378 421.776 239.641C419.862 237.984 418.522 235.701 417.967 233.234C417.88 232.846 418.477 232.68 418.565 233.07Z" fill="#333333"/>
<path d="M398.235 206.332C400.156 208.594 401.148 211.416 401.148 214.261C401.148 214.627 401.13 214.987 401.092 215.353C401.086 215.477 401.074 215.6 401.055 215.725C400.975 216.407 400.838 217.083 400.64 217.746C400.435 218.422 400.175 219.085 399.853 219.73C399.289 220.852 398.613 222.098 397.813 223.438C397.733 223.568 397.652 223.704 397.572 223.835H424.732C423.771 221.677 422.699 219.606 421.788 217.746C420.406 214.913 419.408 212.563 419.755 211.149C421.298 204.695 425.163 198.829 425.293 192.145C425.355 188.748 425.736 177.88 425.736 177.88C425.736 177.88 422.624 175.883 417.405 174.904C414.151 174.296 410.786 174.606 407.476 174.594C407.389 174.606 407.296 174.612 407.21 174.618C407.141 174.631 407.073 174.637 407.011 174.643L402.326 175.926C402.264 177.377 401.879 178.797 401.173 180.074C398.526 184.842 395.068 190.025 394.312 195.413C394.051 197.267 394.287 198.879 394.808 200.367C395.557 202.488 396.902 204.354 398.235 206.332Z" fill="#B85428"/>
<path d="M396.394 226.643H425.848C425.445 225.688 425.073 224.752 424.732 223.835C423.771 221.677 422.699 219.606 421.788 217.746H400.64C400.435 218.422 400.175 219.085 399.853 219.73C399.289 220.852 398.613 222.099 397.813 223.438C397.733 223.568 397.652 223.705 397.572 223.835C397.175 224.752 396.779 225.695 396.394 226.643Z" fill="#212121"/>
<path d="M388.894 257.939C388.721 258.735 389.508 259.394 390.233 259.064L393.45 257.597C398.644 255.222 401.768 249.727 401.229 243.933C400.665 237.935 400.69 230.953 401.068 223.743C401.514 215.108 402.462 206.156 403.498 198.187C404.911 187.333 406.498 178.301 407.21 174.396C407.142 174.409 407.074 174.415 407.012 174.421L403.2 175.466L402.327 175.708C402.264 177.163 401.88 178.586 401.174 179.867C398.527 184.647 395.068 189.844 394.312 195.246C394.052 197.105 394.288 198.721 394.808 200.213C395.558 202.339 396.903 204.21 398.236 206.193C398.713 206.759 399.141 207.542 399.5 208.394C400.839 211.533 400.851 215.083 399.717 218.303C399.06 220.174 398.31 222.207 397.814 223.345C397.752 223.481 397.697 223.612 397.641 223.742C392.837 234.615 388.324 243.915 388.894 257.939Z" fill="#F9AA55"/>
<path d="M407.743 244.208C408.208 249.131 411.604 253.26 416.24 254.705L431.705 259.51C432.331 259.708 432.851 259.212 432.957 258.555C435.659 241.22 428.184 224.883 423.697 216.971C421.856 213.722 420.336 207.794 422.183 204.551C425.192 198.461 426.509 191.67 425.973 184.897C425.789 182.568 425.603 180.364 425.736 177.879L417.307 173.8L415.733 173.037C415.733 173.037 412.726 183.974 410.297 198.904C408.078 212.457 406.336 229.291 407.743 244.208Z" fill="#F9AA55"/>
<path d="M439.987 151.938C442.171 154.152 441.958 158.024 440.063 161.76L427.119 189.115C425.224 192.851 421.917 194.086 419.732 191.873C417.548 189.66 417.313 184.837 419.208 181.1L433.028 155.229C434.923 151.492 437.803 149.725 439.987 151.938Z" fill="#EE7666"/>
<path d="M439.545 166.838C439.914 167.197 440.014 167.75 439.794 168.215L427.771 189.447C426.601 191.758 424.864 193.284 423.008 193.629C421.611 193.892 420.261 193.45 419.212 192.388C416.784 189.93 416.496 184.827 418.562 180.753L430.555 158.305C430.931 157.601 431.877 157.453 432.45 158.009L439.545 166.838Z" fill="#F9AA55"/>
<path d="M429.409 119.625C431.362 119.127 432.454 120.756 433.064 123.149L442.085 154.595C442.695 156.988 440.873 160.919 438.921 161.417C436.968 161.915 433.98 159.218 433.37 156.825L427.578 124.842C426.968 122.449 427.457 120.123 429.409 119.625Z" fill="#EE7666"/>
<path d="M417.927 167.511L416.857 171.203L416.195 173.261L415.705 174.771L415.766 174.774C415.331 175.993 415.021 177.267 414.41 178.416C414.394 178.444 414.381 178.47 414.362 178.499C413.748 179.632 412.804 180.582 411.573 181.033C410.642 181.376 409.583 181.408 408.694 180.931C407.763 180.432 407.219 179.488 407.043 178.464C406.797 177.034 407.398 175.779 407.741 174.436L407.869 174.41L409.586 167.111L417.927 167.511Z" fill="#EE7765"/>
<path d="M409.454 166.836L408.403 172.363C410.021 171.865 412.1 170.958 413.688 167.128L413.039 167.082L409.454 166.836Z" fill="#EE7765"/>
<path d="M401.056 159.324C401.175 159.561 401.352 159.742 401.555 159.884C401.718 160.077 401.919 160.244 402.149 160.347C402.149 160.347 402.108 160.87 402.143 161.665C402.146 161.853 402.164 162.061 402.175 162.277C402.273 163.434 402.528 164.927 403.186 166.286C403.595 167.142 404.332 167.791 405.206 168.132C408.131 169.271 410.64 169.688 412.785 169.423C413.435 169.351 414.058 169.208 414.643 168.998C415.647 168.653 416.554 168.119 417.367 167.408C419.508 165.551 421.012 162.48 421.991 158.308C422.491 156.175 422.175 153.937 421.106 152.038C419.428 149.059 415.846 144.376 410.51 146.159C408.081 146.977 406.222 148.972 405.359 151.427C405.312 151.553 405.269 151.686 405.22 151.818C404.9 152.765 404.602 153.802 404.435 154.705C404.374 155.062 404.225 155.398 404.011 155.69C403.65 156.184 403.173 156.759 402.822 157.037C402.574 157.231 402.316 157.406 402.036 157.548C401.796 157.677 401.527 157.781 401.318 157.965C400.911 158.316 400.834 158.871 401.056 159.324Z" fill="#EE7666"/>
<path d="M403.599 162.14C404.07 162.334 404.597 162.376 405.09 162.236C405.633 162.081 406.089 161.712 406.386 161.237C406.468 161.106 406.666 161.088 406.784 161.174C406.916 161.27 406.929 161.441 406.847 161.572C406.129 162.723 404.649 163.19 403.398 162.674C403.059 162.534 403.259 162 403.599 162.14Z" fill="#EE7666"/>
<path d="M408.311 156.339C408.312 156.339 408.314 156.338 408.316 156.337C408.34 156.331 408.368 156.335 408.395 156.338C408.221 155.355 407.527 154.476 406.605 154.125C406.46 154.069 406.303 154.026 406.149 154.054C405.995 154.082 405.847 154.201 405.829 154.359C405.809 154.534 405.946 154.684 406.085 154.787C406.373 155.002 406.71 155.134 407.04 155.274C407.37 155.414 407.702 155.566 407.964 155.812C408.119 155.956 408.239 156.14 408.311 156.339Z" fill="#20221B"/>
<path d="M406.655 157.643C406.532 158.156 406.152 158.512 405.805 158.438C405.458 158.363 405.276 157.887 405.398 157.373C405.521 156.86 405.901 156.504 406.249 156.578C406.596 156.652 406.778 157.129 406.655 157.643Z" fill="#20221B"/>
<path d="M427.903 122.644C427.673 121.85 429.082 114.042 429.363 112.805C429.537 112.041 430.566 112.251 430.644 112.601C430.877 113.662 430.886 117.198 430.873 117.622C430.859 118.045 428.321 124.085 427.903 122.644Z" fill="#EE7666"/>
<path d="M428.041 122.041C427.349 124.031 430.293 126.198 432.904 122.599C433.632 121.595 435.446 116.094 435.732 115.311C436.019 114.528 434.241 108.591 434.005 108.156C433.769 107.721 432.883 107.936 432.784 108.112C432.603 108.437 433.125 113.878 433.089 114.958C433.073 115.44 428.6 120.437 428.041 122.041Z" fill="#EE7666"/>
<path d="M421.057 364.733L425.935 364.564C425.935 364.564 427.785 369.948 425.514 370.453C423.244 370.958 420.3 370.369 415.843 370.958C411.386 371.547 407.013 371.378 409.957 368.098C412.9 364.817 420.216 366.078 421.057 364.733Z" fill="#21221B"/>
<path d="M415.127 161.046C415.12 161.325 414.887 161.539 414.611 161.533C414.525 161.529 414.439 161.529 414.356 161.539C414.113 161.28 413.934 160.957 413.844 160.608C414.103 160.547 414.368 160.522 414.647 160.531C414.928 160.541 415.139 160.774 415.127 161.046Z" fill="#EE7666"/>
<path d="M415.162 156.629C414.807 156.601 414.029 156.297 413.041 155.846C413.127 155.158 413.297 153.986 413.53 153.682C413.773 153.359 412.807 154.377 412.315 155.506C408.947 153.903 403.992 151.151 403.992 151.151C409.014 139.814 422.634 146.054 423.92 148.633C425.209 151.209 416.707 156.757 415.162 156.629Z" fill="#333333"/>
<path d="M416.172 163.202C416.172 163.202 415.781 171.884 413.357 173.057C413.357 173.057 421.098 175.873 423.287 173.996C425.476 172.119 431.028 152.095 421.723 146.62C412.418 141.145 412.731 161.716 412.731 161.716L416.015 160.777L416.172 163.202Z" fill="#333333"/>
<path d="M417.492 160.753C417.492 160.907 417.476 161.06 417.441 161.217L417.189 162.34C417.074 162.858 416.776 163.287 416.379 163.575C416.091 163.786 415.753 163.924 415.391 163.969C415.157 163.997 414.914 163.988 414.671 163.933C414.246 163.837 413.881 163.62 413.603 163.325C413.686 163.316 413.772 163.316 413.859 163.319C414.134 163.325 414.367 163.111 414.374 162.833C414.387 162.56 414.176 162.327 413.894 162.318C413.616 162.308 413.35 162.333 413.091 162.394C413.014 162.084 413.005 161.751 413.079 161.415L413.334 160.289C413.59 159.156 414.716 158.443 415.852 158.698C416.827 158.919 417.492 159.786 417.492 160.753Z" fill="#DE6E5F"/>
<path d="M416.641 167.293C416.635 167.306 416.622 167.322 416.616 167.338C416.277 167.895 415.794 168.314 415.247 168.583C415.227 168.592 415.208 168.602 415.189 168.612C415.045 168.679 414.898 168.74 414.744 168.784C414.738 168.788 414.729 168.791 414.719 168.794C414.562 168.839 414.399 168.874 414.236 168.897C414.204 168.9 414.169 168.9 414.137 168.903C414.057 168.913 413.974 168.926 413.89 168.926C413.829 168.929 413.769 168.926 413.711 168.922C413.698 168.922 413.685 168.926 413.673 168.926C413.66 168.926 413.647 168.922 413.637 168.922C413.551 168.919 413.465 168.913 413.382 168.9C413.359 168.9 413.337 168.897 413.318 168.897C413.295 168.893 413.276 168.887 413.253 168.884C413.196 168.874 413.135 168.865 413.077 168.852C413.013 168.836 412.95 168.82 412.885 168.801C412.844 168.791 412.802 168.778 412.758 168.766C412.649 168.731 412.543 168.692 412.441 168.644H412.438C412.332 168.596 412.23 168.542 412.131 168.484C412.128 168.481 412.124 168.481 412.121 168.481C412.118 168.478 412.108 168.472 412.105 168.468C412.099 168.465 412.092 168.462 412.086 168.456C411.798 168.283 411.542 168.072 411.321 167.822C411.309 167.809 411.296 167.796 411.286 167.787C411.184 167.666 411.088 167.537 411.002 167.403C410.992 167.39 410.982 167.374 410.973 167.358C410.643 166.824 410.458 166.19 410.477 165.515C410.525 164.123 411.427 162.955 412.668 162.514C412.806 162.463 412.946 162.424 413.09 162.395C413.349 162.334 413.615 162.309 413.893 162.318C414.175 162.328 414.386 162.562 414.373 162.833C414.366 163.112 414.133 163.326 413.858 163.32C413.771 163.316 413.685 163.316 413.602 163.326C413.563 163.326 413.525 163.329 413.487 163.336C412.386 163.477 411.513 164.405 411.474 165.547C411.465 165.822 411.513 166.088 411.596 166.334C411.622 166.414 411.654 166.491 411.689 166.568C411.711 166.619 411.737 166.667 411.762 166.718C411.791 166.772 411.82 166.827 411.855 166.881C411.923 166.987 411.999 167.086 412.086 167.179C412.102 167.195 412.121 167.211 412.137 167.23C412.207 167.303 412.287 167.371 412.37 167.435C412.415 167.47 412.466 167.505 412.514 167.54C412.585 167.585 412.655 167.623 412.725 167.662C412.792 167.697 412.86 167.726 412.927 167.754C413.004 167.783 413.08 167.812 413.157 167.834C413.221 167.854 413.285 167.866 413.349 167.879C413.439 167.895 413.529 167.908 413.618 167.914C413.682 167.921 413.746 167.921 413.813 167.921C413.89 167.921 413.967 167.914 414.044 167.908C414.111 167.899 414.175 167.889 414.239 167.876C414.319 167.86 414.399 167.841 414.475 167.819C414.527 167.803 414.575 167.78 414.623 167.761C414.715 167.726 414.808 167.687 414.894 167.64C414.917 167.627 414.939 167.611 414.961 167.598C415.07 167.534 415.173 167.463 415.269 167.383C415.467 167.217 415.643 167.025 415.78 166.788C416.324 165.857 416.139 164.686 415.39 163.969C415.752 163.924 416.091 163.787 416.379 163.576C416.379 163.579 416.382 163.582 416.385 163.585C417.201 164.621 417.342 166.09 416.641 167.293Z" fill="#FFC651"/>
</svg>
