<svg width="112" height="242" viewBox="0 0 112 242" fill="none" xmlns="http://www.w3.org/2000/svg">
<path d="M26.3852 3.26107C26.3852 3.26107 34.7653 1.79198 34.2669 7.50954C33.7685 13.2271 28.5215 28.4491 29.8744 33.085C31.2272 37.7209 34.0043 50.0832 25.9581 49.465C17.9119 48.8468 12.6429 33.085 12.6429 33.085L26.3852 3.26107Z" fill="#20221B"/>
<path d="M23.3637 1.00283C23.3637 1.00283 7.97215 -0.0406874 9.21881 16.8682C10.4655 33.7771 -0.0616184 35.8815 4.16309 45.0499C8.38779 54.2183 21.1312 53.6172 20.6463 47.9808C20.1616 42.3444 24.109 30.3955 23.9013 25.2098C23.6936 20.0247 23.3637 1.00283 23.3637 1.00283Z" fill="#20221B"/>
<path d="M40.7804 103.565L22.1026 116.394L1.33337 106.076C1.95446 101.817 5.2706 94.983 7.69013 88.7081C8.07086 87.729 8.42241 86.7691 8.7448 85.8281H34.4179C34.7929 86.7691 35.1679 87.7352 35.5309 88.7081C38.302 95.9876 40.7804 103.565 40.7804 103.565Z" fill="#E19A4C"/>
<path d="M14.5742 95.2963C14.0782 97.6872 12.9059 99.8749 11.2127 101.501C9.42718 103.217 7.10514 104.224 4.72875 104.369C4.35375 104.391 4.3515 105.028 4.72875 105.005C7.22831 104.852 9.64337 103.815 11.5388 102.034C13.3475 100.335 14.6143 97.994 15.1389 95.4652C15.2217 95.0666 14.6569 94.8967 14.5742 95.2963Z" fill="#E19A4C"/>
<path d="M29.8423 95.2963C30.3382 97.6872 31.5106 99.8749 33.2038 101.501C34.9893 103.217 37.3113 104.224 39.6875 104.369C40.0625 104.391 40.0647 105.028 39.6875 105.005C37.1879 104.852 34.7728 103.815 32.8774 102.034C31.0688 100.335 29.8019 97.994 29.2773 95.4652C29.1945 95.0666 29.7593 94.8967 29.8423 95.2963Z" fill="#E19A4C"/>
<path d="M11.9188 234.001L8.49052 233.717L4.33762 185.283C4.0459 179.492 4.27429 173.646 5.01531 167.927C5.88174 161.241 6.04629 154.388 5.502 147.658L4.1202 130.576C3.23207 119.597 4.69516 98.5325 7.48245 88.3027L22.4674 89.8227L17.45 156.468L11.9188 234.001Z" fill="#333333"/>
<path d="M12.8847 233.969L8.00729 233.787C8.00729 233.787 6.15723 239.627 8.42766 240.175C10.6983 240.722 13.6415 240.083 18.0986 240.722C22.5556 241.361 26.9284 241.178 23.9851 237.62C21.0419 234.061 13.7257 235.429 12.8847 233.969Z" fill="#21221B"/>
<path d="M27.8279 234.002L24.3996 233.719L20.2467 185.284C19.9549 179.493 20.1833 173.647 20.9244 167.928C21.7908 161.242 21.9554 154.389 21.4111 147.659L20.0293 130.577C19.1411 119.598 20.6042 98.5336 23.3915 88.3038L34.7265 88.0625L33.3591 156.469L27.8279 234.002Z" fill="#333333"/>
<path d="M29.0607 233.969L24.1832 233.787C24.1832 233.787 22.3331 239.627 24.6036 240.175C26.8742 240.722 29.8174 240.083 34.2745 240.722C38.7316 241.361 43.1043 241.178 40.161 237.62C37.2178 234.061 29.9017 235.429 29.0607 233.969Z" fill="#21221B"/>
<path d="M34.1587 41.0254C34.87 44.1871 35.6397 47.339 36.2546 50.5367L36.3431 50.999L40.1532 71.0959L40.2235 71.3442C40.226 71.3496 40.8144 73.3087 40.8144 73.3087C40.9316 75.0012 40.0828 76.68 38.5876 77.4443C36.8168 78.3493 34.7441 77.6835 33.6832 75.9861C33.4421 75.3446 33.2237 74.712 33.0307 74.0662C32.8392 73.4672 32.6707 72.8631 32.5248 72.2544C32.4458 71.9429 32.3667 71.6315 32.2902 71.3117C31.8903 69.7298 31.4956 68.1455 31.0984 66.5552C30.5157 64.2073 29.9255 61.8568 29.3378 59.5117C28.9731 58.0539 28.6135 56.5935 28.2438 55.1385C27.9954 54.1355 27.7496 53.138 27.496 52.1375C27.0457 50.3243 26.5725 48.5159 26.1399 46.7005C25.7539 45.0642 25.2632 43.4745 25.3333 41.754C25.4033 40.1483 25.989 38.4958 27.1831 37.5405C27.8917 36.9753 28.7763 36.6855 29.6517 36.6915C30.777 36.6983 31.8895 37.1782 32.717 38.0072C33.5498 38.847 33.8961 39.8607 34.1587 41.0254Z" fill="#F1A554"/>
<path d="M48.3789 98.6028L49.84 100.137C50.8625 101.21 51.6419 102.523 52.1241 103.975C52.6098 105.437 53.1584 107.252 53.2726 108.291C53.2726 108.291 52.7018 110.013 51.4474 105.804C51.4474 105.804 53.0721 111.126 52.5183 113.388C52.4286 113.754 51.9696 113.817 51.8082 113.48C51.51 112.857 51.0388 111.557 50.3611 108.846C50.3611 108.846 50.2344 111.894 51.2141 114.27C51.4375 114.812 50.7939 115.32 50.4027 114.904C50.1133 114.596 49.7612 114.011 49.3441 112.973L48.3769 109.425C48.3769 109.425 48.8314 112.662 49.3904 114.267C49.545 114.712 49.0651 115.114 48.7225 114.818C48.2385 114.4 47.6247 113.281 47.0305 110.549L47.8239 113.865C47.9316 114.315 47.4078 114.629 47.1235 114.281C46.7154 113.782 46.1738 112.552 45.54 109.756C45.54 109.756 43.6341 104.573 44.4913 101.398L43.9774 99.4223L48.0308 97.5371L48.3789 98.6028Z" fill="#EE7765"/>
<path d="M44.0335 99.6298L44.2105 100.038C44.2105 100.038 48.0286 97.5412 48.0291 97.5409C48.2647 97.387 41.1824 73.4619 40.4573 71.792C39.536 69.6698 37.2038 68.7599 35.2482 69.7594C33.2925 70.759 32.454 73.2895 33.375 75.4117C35.3617 79.9878 42.4896 96.1265 44.0335 99.6298Z" fill="#F1A554"/>
<path d="M33.7909 67.8822C31.9747 70.2027 31.0372 73.0952 31.0372 76.0133C31.0372 76.3883 31.0547 76.7571 31.0898 77.1323C31.0956 77.2595 31.1073 77.3866 31.125 77.5138C31.201 78.2132 31.3302 78.906 31.5177 79.5862C31.7109 80.2791 31.957 80.9595 32.2617 81.6205C32.7948 82.7711 33.4336 84.0489 34.1893 85.4223C34.2654 85.5556 34.3416 85.6955 34.4177 85.8292H8.74458C9.65266 83.6169 10.6662 81.4936 11.5274 79.5862C12.8339 76.681 13.7771 74.2715 13.449 72.8222C11.9902 66.2042 7.91829 61.0102 7.79537 54.1571C7.73678 50.6732 7.79962 39.1451 7.79962 39.1451C7.79962 39.1451 10.7365 36.6617 15.6696 35.6574C18.7453 35.0343 21.9268 35.3522 25.0552 35.3395C25.1373 35.3522 25.2253 35.3584 25.307 35.3649C25.3716 35.3776 25.436 35.3838 25.4946 35.3903L29.9237 36.7063C29.9823 38.1938 30.3456 39.6496 31.0135 40.9594C33.5151 45.8482 36.7844 51.1629 37.4992 56.6873C37.7453 58.5882 37.5226 60.241 37.0304 61.7669C36.3218 63.9408 35.0505 65.8544 33.7909 67.8822Z" fill="#D7D7DD"/>
<path d="M34.6631 88.7089H7.69019C8.0592 87.7298 8.39979 86.7699 8.71196 85.8289C9.59186 83.6166 10.5737 81.4933 11.408 79.5859H30.775C30.9622 80.2788 31.2006 80.9593 31.4958 81.6202C32.0124 82.7709 32.631 84.0487 33.3633 85.422C33.4371 85.5554 33.5109 85.6953 33.5847 85.8289C33.948 86.7699 34.3113 87.7363 34.6631 88.7089Z" fill="#CD4527"/>
<path d="M42.6201 120.801C42.7842 121.615 42.0401 122.289 41.3545 121.952L38.3139 120.452C33.4042 118.023 30.4514 112.403 30.961 106.478C31.4941 100.343 31.4706 93.2042 31.1134 85.8298C30.6915 76.9995 29.7951 67.8449 28.8167 59.6948C27.4808 48.5949 25.9811 39.3578 25.3074 35.3652C25.372 35.378 25.4363 35.3842 25.4949 35.3907L29.098 36.4588L29.924 36.7066C29.9826 38.1941 30.3459 39.6499 31.0139 40.9597C33.5154 45.8485 36.7847 51.1632 37.4995 56.6876C37.7456 58.5885 37.523 60.2413 37.0308 61.7672C36.3219 63.9414 35.0506 65.855 33.7909 67.883C33.3397 68.4615 32.9355 69.2626 32.5956 70.1335C31.3303 73.3438 31.3185 76.9741 32.3907 80.267C33.0118 82.1806 33.7206 84.2595 34.1894 85.4229C34.248 85.5627 34.3006 85.6961 34.3534 85.8298C38.8938 96.9486 43.1591 106.459 42.6201 120.801Z" fill="#F9AA55"/>
<path d="M17.3611 34.0404L17.405 35.5144L17.219 35.5244C17.6314 36.7755 17.9236 38.0803 18.5001 39.258C19.0865 40.456 19.9936 41.4706 21.1844 41.9435C22.0621 42.292 23.0631 42.3266 23.9034 41.838C24.7855 41.325 25.2999 40.3573 25.4657 39.3078C25.6976 37.8406 25.1291 36.5555 24.8062 35.1781L24.5255 35.1183L25.0189 34.1592L17.2704 33.6836L17.3434 36.1242L17.3611 34.0404Z" fill="#EE7765"/>
<path d="M24.8034 106.719C24.3641 111.766 21.1534 116 16.7711 117.482L2.1537 122.409C1.56203 122.612 1.06986 122.103 0.970127 121.429C-1.58429 103.655 5.4813 86.9028 9.72321 78.7909C11.4633 75.4596 12.9 69.3811 11.1541 66.056L7.77542 58.6381C6.57438 49.5662 8.06365 45.1965 7.75323 38.89L15.7636 34.5247L17.0801 33.7969C17.0801 33.7969 17.8019 39.9462 22.3896 60.2654C25.4781 73.9431 26.1336 91.4226 24.8034 106.719Z" fill="#F9AA55"/>
<path d="M14.1591 44.624C13.5612 47.813 13.0197 51.0206 12.3201 54.1975L12.2186 54.6566L7.77347 74.5992L7.73956 74.8565C7.73956 74.8624 7.50269 76.907 7.50269 76.907C6.94418 78.4924 5.51701 79.6187 3.86418 79.6187C1.90666 79.6187 0.293465 78.0579 0 76.0317C0.03366 75.3399 0.0845255 74.6668 0.163564 73.9934C0.225648 73.363 0.310173 72.7386 0.417387 72.1204C0.468251 71.8022 0.518864 71.4838 0.575214 71.1594C0.83477 69.5434 1.09981 67.9274 1.36485 66.3054C1.75979 63.9121 2.14902 61.5126 2.53823 59.1193C2.78083 57.6318 3.0289 56.1443 3.26602 54.6569C3.43531 53.6347 3.60437 52.6185 3.76818 51.5964C4.07287 49.7477 4.35486 47.8931 4.67625 46.0506C4.96971 44.3919 5.15023 42.7269 5.88901 41.2026C6.5829 39.7825 7.762 38.5583 9.21736 38.246C10.0803 38.0623 10.9944 38.2092 11.784 38.6194C12.7993 39.1459 13.6173 40.0947 14.0405 41.227C14.4638 42.3714 14.3793 43.4487 14.1591 44.624Z" fill="#F9AA55"/>
<path d="M12.7479 49.9025C12.2188 54.7607 11.1903 59.5468 9.69807 64.1627C9.57315 64.5496 10.1389 64.7157 10.2631 64.3318C11.7735 59.6593 12.7985 54.8195 13.3339 49.9025C13.378 49.4969 12.7918 49.5004 12.7479 49.9025Z" fill="#E19A4C"/>
<path d="M25.5087 38.3156C21.571 46.868 17.7231 37.92 17.7231 37.92L17.1119 26.6532L25.304 26.084L25.3584 29.3779L25.4609 35.3758L25.5087 38.3156Z" fill="#EE7765"/>
<path d="M25.461 35.375C24.0024 34.5455 19.8891 32.0115 19.0065 27.9746L25.3587 29.3772L25.461 35.375Z" fill="#EE7765"/>
<path d="M34.669 19.9207C34.492 19.6875 34.2432 19.5292 34.027 19.3501C33.7732 19.1488 33.546 18.9167 33.3321 18.6665C33.0304 18.3077 32.6509 17.61 32.3737 17.0185C32.2089 16.669 32.1154 16.2829 32.1119 15.8903C32.0912 14.8942 31.9615 13.7324 31.797 12.6624C31.7703 12.513 31.7483 12.3632 31.7224 12.2192C31.2614 9.44175 29.7447 6.98298 27.4775 5.68731C22.4936 2.85464 18.2108 7.24893 16.08 10.1487C14.7219 11.9974 14.0529 14.3393 14.2067 16.7096C14.5079 21.3473 15.5025 24.8954 17.3202 27.2543C18.0093 28.1571 18.8202 28.8854 19.7559 29.4284C20.3005 29.7553 20.8929 30.0158 21.5227 30.206C23.5976 30.8613 26.1413 30.8488 29.2104 30.1346C30.1272 29.9214 30.9592 29.3535 31.4985 28.5078C32.3647 27.1658 32.8551 25.6115 33.1364 24.3902C33.1813 24.1605 33.2321 23.9411 33.265 23.7401C33.4271 22.8946 33.4695 22.327 33.4695 22.327C33.7131 22.2567 33.9385 22.1125 34.1297 21.9347C34.3531 21.8181 34.5563 21.655 34.7112 21.4218C35.0029 20.974 35.0156 20.3663 34.669 19.9207Z" fill="#EE7666"/>
<path d="M31.7518 23.9959C31.2556 24.1226 30.729 24.0757 30.2653 23.8406C29.7534 23.5812 29.362 23.1072 29.1448 22.5466C29.0849 22.3924 28.8922 22.3385 28.7615 22.4102C28.6159 22.4903 28.5758 22.6713 28.6359 22.8258C29.1612 24.1818 30.5485 24.9388 31.8648 24.6025C32.2218 24.5116 32.1094 23.9045 31.7518 23.9959Z" fill="#EE7666"/>
<path d="M28.025 16.9704C28.0235 16.9696 28.0223 16.9682 28.0205 16.9674C27.9974 16.9566 27.9697 16.9561 27.9425 16.9544C28.2714 15.932 29.0959 15.1109 30.0623 14.8942C30.2147 14.8601 30.3765 14.8403 30.5238 14.8974C30.6712 14.9545 30.7981 15.1076 30.7909 15.2794C30.7829 15.4702 30.6238 15.6071 30.4702 15.6936C30.1521 15.8736 29.7978 15.9572 29.45 16.0497C29.1022 16.1422 28.7501 16.2483 28.4516 16.4655C28.2761 16.5932 28.1275 16.7696 28.025 16.9704Z" fill="#20221B"/>
<path d="M29.4517 18.6527C29.4909 19.2241 29.81 19.6705 30.1646 19.651C30.5189 19.6315 30.7747 19.1527 30.7355 18.5813C30.6964 18.0104 30.3772 17.5632 30.0227 17.5826C29.6684 17.6024 29.4126 18.0813 29.4517 18.6527Z" fill="#20221B"/>
<path d="M100.347 103.032C106.512 101.666 110.489 95.1362 109.231 88.4468C107.972 81.7574 101.955 77.4414 95.7897 78.8069C89.6249 80.1724 85.6474 86.7022 86.9058 93.3916C88.1642 100.081 94.1819 104.397 100.347 103.032Z" fill="#BF4B72"/>
<path d="M107.616 51.7737L87.7965 129.875L15.8204 108.368L22.7055 81.2372C28.7396 82.9761 34.95 79.1153 36.6111 72.5707C38.2719 66.026 34.7583 59.2596 28.7546 57.4014L35.6404 30.2676L107.616 51.7737Z" fill="#BF4B72"/>
<path d="M24.891 92.3537L26.8353 92.9979C28.1959 93.4487 29.4406 94.2325 30.4791 95.2873C31.525 96.3498 32.7747 97.6941 33.3122 98.5634C33.3122 98.5634 33.5264 100.379 30.6436 97.2496C30.6436 97.2496 34.323 101.187 34.7786 103.474C34.8524 103.845 34.4699 104.127 34.1851 103.907C33.6581 103.499 32.6934 102.575 30.9525 100.495C30.9525 100.495 32.1182 103.272 33.9869 104.903C34.4133 105.276 34.0532 106.046 33.5306 105.869C33.1439 105.738 32.5852 105.391 31.7778 104.672L29.4284 101.991C29.4284 101.991 31.1909 104.648 32.362 105.802C32.6862 106.121 32.4276 106.717 31.9985 106.622C31.3921 106.489 30.3761 105.796 28.7008 103.656L30.7985 106.217C31.0829 106.565 30.7483 107.103 30.3494 106.934C29.7764 106.69 28.7783 105.863 27.041 103.686C27.041 103.686 23.1698 100.013 22.6016 96.7626L21.3151 95.2567L24.1335 91.5762L24.891 92.3537Z" fill="#EE7765"/>
<path d="M21.4524 95.4139L21.7813 95.6896C21.7813 95.6896 24.1335 91.581 24.134 91.5805C24.2791 91.327 7.93702 73.522 6.59112 72.393C4.88069 70.9583 2.42227 71.3 1.10031 73.156C-0.221658 75.0119 0.0930028 77.6793 1.80343 79.114C5.49157 82.2075 18.6082 93.0569 21.4524 95.4139Z" fill="#F9AA55"/>
<path d="M32.5021 5.63416C32.5021 5.63416 30.0347 15.9181 16.5438 19.7807C3.05283 23.6431 15.3649 -4.18956 26.9414 0.848373C38.5182 5.88603 32.5021 5.63416 32.5021 5.63416Z" fill="#20221B"/>
<path d="M20.0282 16.7812L19.4911 24.3564L16.1498 17.3637L20.0282 16.7812Z" fill="#20221B"/>
<path d="M16.2802 17.5294C16.2802 17.5294 19.8531 40.9234 17.8263 41.2407C15.7994 41.5581 11.7548 31.4427 11.7548 31.4427L12.9805 19.1662L16.1862 16.7109L16.2802 17.5294Z" fill="#20221B"/>
<path d="M17.2823 23.979C16.1585 24.3042 15.0044 23.5794 14.7047 22.3598L14.4077 21.152C14.108 19.9327 14.776 18.6803 15.9 18.3551C17.0237 18.0299 18.1779 18.7547 18.4776 19.9743L18.7745 21.1821C19.0742 22.4014 18.406 23.6538 17.2823 23.979Z" fill="#DE6E5F"/>
</svg>
