<svg width="342" height="142" viewBox="0 0 342 142" fill="none" xmlns="http://www.w3.org/2000/svg">
<g filter="url(#filter0_d_1961_38605)">
<path d="M32.772 63.332L10.984 53.296V53.192L32.772 43.104V37.384L4.536 51.112V55.324L32.772 69V63.332ZM58.8194 17.477V51.312C58.8194 59.352 55.8714 61.362 51.3824 61.362C49.4394 61.362 47.6974 61.027 46.4244 60.625L45.3524 68.732C47.0944 69.335 49.9754 69.737 52.3204 69.737C61.9014 69.737 68.7354 65.583 68.7354 51.379V17.477H58.8194ZM103.848 17.41V48.565C103.848 57.744 100.565 61.563 95.2046 61.563C90.1126 61.563 86.6956 57.61 86.6956 48.565V17.41H76.7796V47.694C76.7796 62.836 83.3456 69.737 94.9366 69.737C106.595 69.737 113.764 62.702 113.764 47.627V17.41H103.848ZM150.898 17.477V32.954C150.898 41.329 151.166 48.632 151.769 55.198H151.635C149.558 49.838 146.677 43.54 143.93 38.381L133.076 17.477H122.356V69H131.334V53.188C131.334 44.009 131.133 36.773 130.731 30.408H130.999C133.143 36.036 136.158 42.401 138.905 47.694L149.96 69H159.876V17.477H150.898ZM178.565 69V17.477H168.649V69H178.565ZM206.695 16.673C193.228 16.673 184.719 27.996 184.719 43.406C184.719 58.347 192.424 69.737 206.025 69.737C218.822 69.737 227.934 60.558 227.934 42.602C227.934 28.867 220.966 16.673 206.695 16.673ZM206.427 24.78C213.998 24.78 217.549 33.557 217.549 43.004C217.549 53.389 213.73 61.63 206.36 61.63C199.057 61.63 195.104 53.322 195.104 43.205C195.104 33.758 198.655 24.78 206.427 24.78ZM262.688 17.477V32.954C262.688 41.329 262.956 48.632 263.559 55.198H263.425C261.348 49.838 258.467 43.54 255.72 38.381L244.866 17.477H234.146V69H243.124V53.188C243.124 44.009 242.923 36.773 242.521 30.408H242.789C244.933 36.036 247.948 42.401 250.695 47.694L261.75 69H271.666V17.477H262.688ZM293.236 16.673L275.615 72.015H282.315L299.936 16.673H293.236ZM301.819 43L324.439 53.14V53.244L301.819 63.384V69L330.107 55.636V50.748L301.819 37.384V43Z" fill="#F9AA55"/>
</g>
<line x1="17.5513" y1="94.196" x2="325.449" y2="94.196" stroke="#F9AA55" stroke-width="1.60791"/>
<path d="M83.36 134V111.6H93.408C95.9893 111.6 97.9733 112.123 99.36 113.168C100.747 114.192 101.44 115.6 101.44 117.392C101.44 118.608 101.163 119.632 100.608 120.464C100.075 121.296 99.3493 121.936 98.432 122.384C97.5147 122.832 96.5227 123.056 95.456 123.056L96.032 122.096C97.312 122.096 98.4427 122.32 99.424 122.768C100.405 123.216 101.184 123.877 101.76 124.752C102.336 125.605 102.624 126.672 102.624 127.952C102.624 129.872 101.899 131.365 100.448 132.432C99.0187 133.477 96.8853 134 94.048 134H83.36ZM86.56 131.408H93.92C95.6907 131.408 97.0453 131.109 97.984 130.512C98.9227 129.915 99.392 128.976 99.392 127.696C99.392 126.395 98.9227 125.445 97.984 124.848C97.0453 124.251 95.6907 123.952 93.92 123.952H86.272V121.36H93.12C94.7413 121.36 96 121.061 96.896 120.464C97.792 119.867 98.24 118.971 98.24 117.776C98.24 116.581 97.792 115.685 96.896 115.088C96 114.491 94.7413 114.192 93.12 114.192H86.56V131.408ZM117.659 134V130.416L117.499 129.744V123.632C117.499 122.331 117.115 121.328 116.347 120.624C115.6 119.899 114.469 119.536 112.955 119.536C111.952 119.536 110.971 119.707 110.011 120.048C109.051 120.368 108.24 120.805 107.579 121.36L106.299 119.056C107.173 118.352 108.219 117.819 109.435 117.456C110.672 117.072 111.963 116.88 113.307 116.88C115.632 116.88 117.424 117.445 118.683 118.576C119.941 119.707 120.571 121.435 120.571 123.76V134H117.659ZM112.091 134.192C110.832 134.192 109.723 133.979 108.763 133.552C107.824 133.125 107.099 132.539 106.587 131.792C106.075 131.024 105.819 130.16 105.819 129.2C105.819 128.283 106.032 127.451 106.459 126.704C106.907 125.957 107.621 125.36 108.603 124.912C109.605 124.464 110.949 124.24 112.635 124.24H118.011V126.448H112.763C111.227 126.448 110.192 126.704 109.659 127.216C109.125 127.728 108.859 128.347 108.859 129.072C108.859 129.904 109.189 130.576 109.851 131.088C110.512 131.579 111.429 131.824 112.603 131.824C113.755 131.824 114.757 131.568 115.611 131.056C116.485 130.544 117.115 129.797 117.499 128.816L118.107 130.928C117.701 131.931 116.987 132.731 115.963 133.328C114.939 133.904 113.648 134.192 112.091 134.192ZM133.648 134.192C131.92 134.192 130.373 133.819 129.008 133.072C127.664 132.325 126.608 131.301 125.84 130C125.072 128.699 124.688 127.205 124.688 125.52C124.688 123.835 125.072 122.341 125.84 121.04C126.608 119.739 127.664 118.725 129.008 118C130.373 117.253 131.92 116.88 133.648 116.88C135.184 116.88 136.549 117.189 137.744 117.808C138.96 118.405 139.898 119.301 140.56 120.496L138.224 122C137.669 121.168 136.986 120.56 136.176 120.176C135.386 119.771 134.533 119.568 133.616 119.568C132.506 119.568 131.514 119.813 130.64 120.304C129.765 120.795 129.072 121.488 128.56 122.384C128.048 123.259 127.792 124.304 127.792 125.52C127.792 126.736 128.048 127.792 128.56 128.688C129.072 129.584 129.765 130.277 130.64 130.768C131.514 131.259 132.506 131.504 133.616 131.504C134.533 131.504 135.386 131.312 136.176 130.928C136.986 130.523 137.669 129.904 138.224 129.072L140.56 130.544C139.898 131.717 138.96 132.624 137.744 133.264C136.549 133.883 135.184 134.192 133.648 134.192ZM146.814 129.904L146.878 125.968L156.638 117.04H160.35L152.862 124.4L151.198 125.808L146.814 129.904ZM144.318 134V110.256H147.39V134H144.318ZM157.278 134L150.622 125.744L152.606 123.28L161.054 134H157.278ZM162.23 126.544V123.888H170.838V126.544H162.23ZM183.145 134.192C181.438 134.192 179.923 133.819 178.601 133.072C177.278 132.325 176.233 131.301 175.465 130C174.697 128.677 174.313 127.184 174.313 125.52C174.313 123.835 174.697 122.341 175.465 121.04C176.233 119.739 177.278 118.725 178.601 118C179.923 117.253 181.438 116.88 183.145 116.88C184.83 116.88 186.334 117.253 187.657 118C189.001 118.725 190.046 119.739 190.793 121.04C191.561 122.32 191.945 123.813 191.945 125.52C191.945 127.205 191.561 128.699 190.793 130C190.046 131.301 189.001 132.325 187.657 133.072C186.334 133.819 184.83 134.192 183.145 134.192ZM183.145 131.504C184.233 131.504 185.203 131.259 186.057 130.768C186.931 130.277 187.614 129.584 188.105 128.688C188.595 127.771 188.841 126.715 188.841 125.52C188.841 124.304 188.595 123.259 188.105 122.384C187.614 121.488 186.931 120.795 186.057 120.304C185.203 119.813 184.233 119.568 183.145 119.568C182.057 119.568 181.086 119.813 180.233 120.304C179.379 120.795 178.697 121.488 178.185 122.384C177.673 123.259 177.417 124.304 177.417 125.52C177.417 126.715 177.673 127.771 178.185 128.688C178.697 129.584 179.379 130.277 180.233 130.768C181.086 131.259 182.057 131.504 183.145 131.504ZM196.641 134V115.536C196.641 113.872 197.121 112.549 198.081 111.568C199.063 110.565 200.449 110.064 202.241 110.064C202.903 110.064 203.532 110.149 204.129 110.32C204.748 110.469 205.271 110.715 205.697 111.056L204.769 113.392C204.449 113.136 204.087 112.944 203.681 112.816C203.276 112.667 202.849 112.592 202.401 112.592C201.505 112.592 200.823 112.848 200.353 113.36C199.884 113.851 199.649 114.587 199.649 115.568V117.84L199.713 119.248V134H196.641ZM193.761 119.568V117.04H204.577V119.568H193.761ZM207.923 134V115.536C207.923 113.872 208.403 112.549 209.363 111.568C210.344 110.565 211.731 110.064 213.523 110.064C214.184 110.064 214.813 110.149 215.411 110.32C216.029 110.469 216.552 110.715 216.979 111.056L216.051 113.392C215.731 113.136 215.368 112.944 214.963 112.816C214.557 112.667 214.131 112.592 213.683 112.592C212.787 112.592 212.104 112.848 211.635 113.36C211.165 113.851 210.931 114.587 210.931 115.568V117.84L210.995 119.248V134H207.923ZM205.043 119.568V117.04H215.859V119.568H205.043ZM218.771 134V117.04H221.843V134H218.771ZM220.307 113.776C219.709 113.776 219.208 113.584 218.803 113.2C218.419 112.816 218.227 112.347 218.227 111.792C218.227 111.216 218.419 110.736 218.803 110.352C219.208 109.968 219.709 109.776 220.307 109.776C220.904 109.776 221.395 109.968 221.779 110.352C222.184 110.715 222.387 111.173 222.387 111.728C222.387 112.304 222.195 112.795 221.811 113.2C221.427 113.584 220.925 113.776 220.307 113.776ZM235.085 134.192C233.357 134.192 231.811 133.819 230.445 133.072C229.101 132.325 228.045 131.301 227.277 130C226.509 128.699 226.125 127.205 226.125 125.52C226.125 123.835 226.509 122.341 227.277 121.04C228.045 119.739 229.101 118.725 230.445 118C231.811 117.253 233.357 116.88 235.085 116.88C236.621 116.88 237.987 117.189 239.181 117.808C240.397 118.405 241.336 119.301 241.997 120.496L239.661 122C239.107 121.168 238.424 120.56 237.613 120.176C236.824 119.771 235.971 119.568 235.053 119.568C233.944 119.568 232.952 119.813 232.077 120.304C231.203 120.795 230.509 121.488 229.997 122.384C229.485 123.259 229.229 124.304 229.229 125.52C229.229 126.736 229.485 127.792 229.997 128.688C230.509 129.584 231.203 130.277 232.077 130.768C232.952 131.259 233.944 131.504 235.053 131.504C235.971 131.504 236.824 131.312 237.613 130.928C238.424 130.523 239.107 129.904 239.661 129.072L241.997 130.544C241.336 131.717 240.397 132.624 239.181 133.264C237.987 133.883 236.621 134.192 235.085 134.192ZM253.277 134.192C251.463 134.192 249.863 133.819 248.477 133.072C247.111 132.325 246.045 131.301 245.277 130C244.53 128.699 244.157 127.205 244.157 125.52C244.157 123.835 244.519 122.341 245.245 121.04C245.991 119.739 247.005 118.725 248.285 118C249.586 117.253 251.047 116.88 252.669 116.88C254.311 116.88 255.762 117.243 257.021 117.968C258.279 118.693 259.261 119.717 259.965 121.04C260.69 122.341 261.053 123.867 261.053 125.616C261.053 125.744 261.042 125.893 261.021 126.064C261.021 126.235 261.01 126.395 260.989 126.544H246.557V124.336H259.389L258.141 125.104C258.162 124.016 257.938 123.045 257.469 122.192C256.999 121.339 256.349 120.677 255.517 120.208C254.706 119.717 253.757 119.472 252.669 119.472C251.602 119.472 250.653 119.717 249.821 120.208C248.989 120.677 248.338 121.349 247.869 122.224C247.399 123.077 247.165 124.059 247.165 125.168V125.68C247.165 126.811 247.421 127.824 247.933 128.72C248.466 129.595 249.202 130.277 250.141 130.768C251.079 131.259 252.157 131.504 253.373 131.504C254.375 131.504 255.282 131.333 256.093 130.992C256.925 130.651 257.65 130.139 258.269 129.456L259.965 131.44C259.197 132.336 258.237 133.019 257.085 133.488C255.954 133.957 254.685 134.192 253.277 134.192Z" fill="#F9AA55"/>
<defs>
<filter id="filter0_d_1961_38605" x="0.535889" y="16.6729" width="333.571" height="63.3418" filterUnits="userSpaceOnUse" color-interpolation-filters="sRGB">
<feFlood flood-opacity="0" result="BackgroundImageFix"/>
<feColorMatrix in="SourceAlpha" type="matrix" values="0 0 0 0 0 0 0 0 0 0 0 0 0 0 0 0 0 0 127 0" result="hardAlpha"/>
<feOffset dy="4"/>
<feGaussianBlur stdDeviation="2"/>
<feComposite in2="hardAlpha" operator="out"/>
<feColorMatrix type="matrix" values="0 0 0 0 0 0 0 0 0 0 0 0 0 0 0 0 0 0 0.25 0"/>
<feBlend mode="normal" in2="BackgroundImageFix" result="effect1_dropShadow_1961_38605"/>
<feBlend mode="normal" in="SourceGraphic" in2="effect1_dropShadow_1961_38605" result="shape"/>
</filter>
</defs>
</svg>
