<svg width="234" height="50" viewBox="0 0 234 50" fill="none" xmlns="http://www.w3.org/2000/svg">
<path d="M14.664 31.384L4.608 26.752V26.704L14.664 22.048V19.408L1.632 25.744V27.688L14.664 34V31.384ZM25.3082 15.544V27.664C25.3082 30.544 24.2522 31.264 22.6442 31.264C21.9482 31.264 21.3242 31.144 20.8682 31L20.4842 33.904C21.1082 34.12 22.1402 34.264 22.9802 34.264C26.4122 34.264 28.8602 32.776 28.8602 27.688V15.544H25.3082ZM41.4377 15.52V26.68C41.4377 29.968 40.2617 31.336 38.3417 31.336C36.5177 31.336 35.2937 29.92 35.2937 26.68V15.52H31.7417V26.368C31.7417 31.792 34.0937 34.264 38.2457 34.264C42.4217 34.264 44.9897 31.744 44.9897 26.344V15.52H41.4377ZM58.2915 15.544V21.088C58.2915 24.088 58.3875 26.704 58.6035 29.056H58.5555C57.8115 27.136 56.7795 24.88 55.7955 23.032L51.9075 15.544H48.0675V34H51.2835V28.336C51.2835 25.048 51.2115 22.456 51.0675 20.176H51.1635C51.9315 22.192 53.0115 24.472 53.9955 26.368L57.9555 34H61.5075V15.544H58.2915ZM68.202 34V15.544H64.65V34H68.202ZM78.2784 15.256C73.4544 15.256 70.4064 19.312 70.4064 24.832C70.4064 30.184 73.1664 34.264 78.0384 34.264C82.6224 34.264 85.8864 30.976 85.8864 24.544C85.8864 19.624 83.3904 15.256 78.2784 15.256ZM78.1824 18.16C80.8944 18.16 82.1664 21.304 82.1664 24.688C82.1664 28.408 80.7984 31.36 78.1584 31.36C75.5424 31.36 74.1264 28.384 74.1264 24.76C74.1264 21.376 75.3984 18.16 78.1824 18.16ZM98.3359 15.544V21.088C98.3359 24.088 98.4319 26.704 98.6479 29.056H98.5999C97.8559 27.136 96.8239 24.88 95.8399 23.032L91.9519 15.544H88.1119V34H91.3279V28.336C91.3279 25.048 91.2559 22.456 91.1119 20.176H91.2079C91.9759 22.192 93.0559 24.472 94.0399 26.368L97.9999 34H101.552V15.544H98.3359ZM109.278 15.256L102.966 35.08H105.366L111.678 15.256H109.278ZM112.718 22L123.158 26.68V26.728L112.718 31.408V34L125.774 27.832V25.576L112.718 19.408V22Z" fill="#544780"/>
<line x1="135.5" y1="35" x2="135.5" y2="15" stroke="#544780"/>
<path d="M145.824 31V19.8H150.656C151.904 19.8 152.869 20.0507 153.552 20.552C154.245 21.0533 154.592 21.7627 154.592 22.68C154.592 23.288 154.448 23.8 154.16 24.216C153.883 24.632 153.499 24.9467 153.008 25.16C152.528 25.3733 152 25.48 151.424 25.48L151.696 25.096C152.411 25.096 153.024 25.208 153.536 25.432C154.059 25.6453 154.464 25.9707 154.752 26.408C155.04 26.8347 155.184 27.368 155.184 28.008C155.184 28.9573 154.832 29.6933 154.128 30.216C153.435 30.7387 152.384 31 150.976 31H145.824ZM147.008 30.024H150.96C151.941 30.024 152.693 29.8587 153.216 29.528C153.739 29.1867 154 28.648 154 27.912C154 27.1867 153.739 26.6587 153.216 26.328C152.693 25.9867 151.941 25.816 150.96 25.816H146.88V24.84H150.576C151.472 24.84 152.165 24.6693 152.656 24.328C153.157 23.9867 153.408 23.48 153.408 22.808C153.408 22.1253 153.157 21.6187 152.656 21.288C152.165 20.9467 151.472 20.776 150.576 20.776H147.008V30.024ZM162.911 31V29.144L162.863 28.84V25.736C162.863 25.0213 162.66 24.472 162.255 24.088C161.86 23.704 161.268 23.512 160.479 23.512C159.935 23.512 159.417 23.6027 158.927 23.784C158.436 23.9653 158.02 24.2053 157.679 24.504L157.167 23.656C157.593 23.2933 158.105 23.016 158.703 22.824C159.3 22.6213 159.929 22.52 160.591 22.52C161.679 22.52 162.516 22.792 163.103 23.336C163.7 23.8693 163.999 24.6853 163.999 25.784V31H162.911ZM160.015 31.08C159.385 31.08 158.836 30.9787 158.367 30.776C157.908 30.5627 157.556 30.2747 157.311 29.912C157.065 29.5387 156.943 29.112 156.943 28.632C156.943 28.1947 157.044 27.8 157.247 27.448C157.46 27.0853 157.801 26.7973 158.271 26.584C158.751 26.36 159.391 26.248 160.191 26.248H163.087V27.096H160.223C159.412 27.096 158.847 27.24 158.527 27.528C158.217 27.816 158.062 28.1733 158.062 28.6C158.062 29.08 158.249 29.464 158.623 29.752C158.996 30.04 159.519 30.184 160.191 30.184C160.831 30.184 161.38 30.04 161.839 29.752C162.308 29.4533 162.649 29.0267 162.863 28.472L163.119 29.256C162.905 29.8107 162.532 30.2533 161.999 30.584C161.476 30.9147 160.815 31.08 160.015 31.08ZM170.572 31.08C169.74 31.08 168.993 30.8987 168.332 30.536C167.681 30.1627 167.169 29.656 166.796 29.016C166.423 28.3653 166.236 27.624 166.236 26.792C166.236 25.9493 166.423 25.208 166.796 24.568C167.169 23.928 167.681 23.4267 168.332 23.064C168.993 22.7013 169.74 22.52 170.572 22.52C171.287 22.52 171.932 22.6587 172.508 22.936C173.084 23.2133 173.537 23.6293 173.868 24.184L173.02 24.76C172.732 24.3333 172.375 24.0187 171.948 23.816C171.521 23.6133 171.057 23.512 170.556 23.512C169.959 23.512 169.42 23.6507 168.94 23.928C168.46 24.1947 168.081 24.5733 167.804 25.064C167.527 25.5547 167.388 26.1307 167.388 26.792C167.388 27.4533 167.527 28.0293 167.804 28.52C168.081 29.0107 168.46 29.3947 168.94 29.672C169.42 29.9387 169.959 30.072 170.556 30.072C171.057 30.072 171.521 29.9707 171.948 29.768C172.375 29.5653 172.732 29.256 173.02 28.84L173.868 29.416C173.537 29.96 173.084 30.376 172.508 30.664C171.932 30.9413 171.287 31.08 170.572 31.08ZM176.871 28.824L176.903 27.368L182.135 22.6H183.527L179.831 26.136L179.191 26.68L176.871 28.824ZM175.975 31V19.128H177.111V31H175.975ZM182.487 31L178.983 26.632L179.719 25.752L183.879 31H182.487ZM184.616 27.16V26.168H188.808V27.16H184.616ZM194.93 31.08C194.119 31.08 193.389 30.8987 192.738 30.536C192.098 30.1627 191.591 29.656 191.218 29.016C190.845 28.3653 190.658 27.624 190.658 26.792C190.658 25.9493 190.845 25.208 191.218 24.568C191.591 23.928 192.098 23.4267 192.738 23.064C193.378 22.7013 194.109 22.52 194.93 22.52C195.762 22.52 196.498 22.7013 197.138 23.064C197.789 23.4267 198.295 23.928 198.658 24.568C199.031 25.208 199.218 25.9493 199.218 26.792C199.218 27.624 199.031 28.3653 198.658 29.016C198.295 29.656 197.789 30.1627 197.138 30.536C196.487 30.8987 195.751 31.08 194.93 31.08ZM194.93 30.072C195.538 30.072 196.077 29.9387 196.546 29.672C197.015 29.3947 197.383 29.0107 197.65 28.52C197.927 28.0187 198.066 27.4427 198.066 26.792C198.066 26.1307 197.927 25.5547 197.65 25.064C197.383 24.5733 197.015 24.1947 196.546 23.928C196.077 23.6507 195.543 23.512 194.946 23.512C194.349 23.512 193.815 23.6507 193.346 23.928C192.877 24.1947 192.503 24.5733 192.226 25.064C191.949 25.5547 191.81 26.1307 191.81 26.792C191.81 27.4427 191.949 28.0187 192.226 28.52C192.503 29.0107 192.877 29.3947 193.346 29.672C193.815 29.9387 194.343 30.072 194.93 30.072ZM201.729 31V21.544C201.729 20.7973 201.948 20.1947 202.385 19.736C202.822 19.2773 203.452 19.048 204.273 19.048C204.593 19.048 204.902 19.0907 205.201 19.176C205.5 19.2613 205.75 19.3947 205.953 19.576L205.569 20.424C205.409 20.2853 205.222 20.184 205.009 20.12C204.796 20.0453 204.566 20.008 204.321 20.008C203.841 20.008 203.473 20.1413 203.217 20.408C202.961 20.6747 202.833 21.0693 202.833 21.592V22.872L202.865 23.4V31H201.729ZM200.225 23.544V22.6H205.425V23.544H200.225ZM207.151 31V21.544C207.151 20.7973 207.37 20.1947 207.807 19.736C208.244 19.2773 208.874 19.048 209.695 19.048C210.015 19.048 210.324 19.0907 210.623 19.176C210.922 19.2613 211.172 19.3947 211.375 19.576L210.991 20.424C210.831 20.2853 210.644 20.184 210.431 20.12C210.218 20.0453 209.988 20.008 209.743 20.008C209.263 20.008 208.895 20.1413 208.639 20.408C208.383 20.6747 208.255 21.0693 208.255 21.592V22.872L208.287 23.4V31H207.151ZM205.647 23.544V22.6H210.847V23.544H205.647ZM212.383 31V22.6H213.519V31H212.383ZM212.959 20.744C212.724 20.744 212.527 20.664 212.367 20.504C212.207 20.344 212.127 20.152 212.127 19.928C212.127 19.704 212.207 19.5173 212.367 19.368C212.527 19.208 212.724 19.128 212.959 19.128C213.194 19.128 213.391 19.2027 213.551 19.352C213.711 19.5013 213.791 19.688 213.791 19.912C213.791 20.1467 213.711 20.344 213.551 20.504C213.402 20.664 213.204 20.744 212.959 20.744ZM220.197 31.08C219.365 31.08 218.618 30.8987 217.957 30.536C217.306 30.1627 216.794 29.656 216.421 29.016C216.048 28.3653 215.861 27.624 215.861 26.792C215.861 25.9493 216.048 25.208 216.421 24.568C216.794 23.928 217.306 23.4267 217.957 23.064C218.618 22.7013 219.365 22.52 220.197 22.52C220.912 22.52 221.557 22.6587 222.133 22.936C222.709 23.2133 223.162 23.6293 223.493 24.184L222.645 24.76C222.357 24.3333 222 24.0187 221.573 23.816C221.146 23.6133 220.682 23.512 220.181 23.512C219.584 23.512 219.045 23.6507 218.565 23.928C218.085 24.1947 217.706 24.5733 217.429 25.064C217.152 25.5547 217.013 26.1307 217.013 26.792C217.013 27.4533 217.152 28.0293 217.429 28.52C217.706 29.0107 218.085 29.3947 218.565 29.672C219.045 29.9387 219.584 30.072 220.181 30.072C220.682 30.072 221.146 29.9707 221.573 29.768C222 29.5653 222.357 29.256 222.645 28.84L223.493 29.416C223.162 29.96 222.709 30.376 222.133 30.664C221.557 30.9413 220.912 31.08 220.197 31.08ZM229.152 31.08C228.277 31.08 227.509 30.8987 226.848 30.536C226.187 30.1627 225.669 29.656 225.296 29.016C224.923 28.3653 224.736 27.624 224.736 26.792C224.736 25.96 224.912 25.224 225.264 24.584C225.627 23.944 226.117 23.4427 226.736 23.08C227.365 22.7067 228.069 22.52 228.848 22.52C229.637 22.52 230.336 22.7013 230.944 23.064C231.563 23.416 232.048 23.9173 232.4 24.568C232.752 25.208 232.928 25.9493 232.928 26.792C232.928 26.8453 232.923 26.904 232.912 26.968C232.912 27.0213 232.912 27.08 232.912 27.144H225.6V26.296H232.304L231.856 26.632C231.856 26.024 231.723 25.4853 231.456 25.016C231.2 24.536 230.848 24.1627 230.4 23.896C229.952 23.6293 229.435 23.496 228.848 23.496C228.272 23.496 227.755 23.6293 227.296 23.896C226.837 24.1627 226.48 24.536 226.224 25.016C225.968 25.496 225.84 26.0453 225.84 26.664V26.84C225.84 27.48 225.979 28.0453 226.256 28.536C226.544 29.016 226.939 29.3947 227.44 29.672C227.952 29.9387 228.533 30.072 229.184 30.072C229.696 30.072 230.171 29.9813 230.608 29.8C231.056 29.6187 231.44 29.3413 231.76 28.968L232.4 29.704C232.027 30.152 231.557 30.4933 230.992 30.728C230.437 30.9627 229.824 31.08 229.152 31.08Z" fill="#544780"/>
</svg>
