<svg width="14" height="15" viewBox="0 0 14 15" fill="none" xmlns="http://www.w3.org/2000/svg">
<path fill-rule="evenodd" clip-rule="evenodd" d="M7 13.8627C10.5145 13.8627 13.3636 11.0136 13.3636 7.49902C13.3636 3.98448 10.5145 1.13539 7 1.13539C3.48546 1.13539 0.636364 3.98448 0.636364 7.49902C0.636364 11.0136 3.48546 13.8627 7 13.8627ZM0 7.50002C0 3.63348 3.13401 0.499023 7 0.499023C10.866 0.499023 14 3.63348 14 7.50002C14 11.3666 10.866 14.501 7 14.501C3.13401 14.501 0 11.3666 0 7.50002ZM6.99994 11.5082C7.38654 11.5082 7.69994 11.1948 7.69994 10.8082C7.69994 10.4216 7.38654 10.1082 6.99994 10.1082C6.61334 10.1082 6.29994 10.4216 6.29994 10.8082C6.29994 11.1948 6.61334 11.5082 6.99994 11.5082ZM6.36364 3.55344H7.63636C7.63636 3.55344 7.63636 5.23482 7.63636 5.58978C7.63636 6.22614 7.12724 9.02616 7.12724 9.02616H6.87276C6.87276 9.02616 6.36364 6.22614 6.36364 5.58978C6.36364 4.95341 6.36364 3.55344 6.36364 3.55344Z" fill="#FF3B30"/>
</svg>
