<svg width="12" height="13" viewBox="0 0 12 13" fill="none" xmlns="http://www.w3.org/2000/svg">
<path fill-rule="evenodd" clip-rule="evenodd" d="M6.68182 3.70357C6.68182 4.11778 6.34603 4.45357 5.93182 4.45357C5.5176 4.45357 5.18182 4.11778 5.18182 3.70357C5.18182 3.28936 5.5176 2.95357 5.93182 2.95357C6.34603 2.95357 6.68182 3.28936 6.68182 3.70357ZM6.54539 5.13534H5.45448V5.13539H4.90909V5.40811H5.45448V9.49902H4.90909V9.77175H7.09091V9.49902H6.54539V5.13534ZM6 11.9536C9.01246 11.9536 11.4545 9.51149 11.4545 6.49902C11.4545 3.48656 9.01246 1.04448 6 1.04448C2.98754 1.04448 0.545455 3.48656 0.545455 6.49902C0.545455 9.51149 2.98754 11.9536 6 11.9536ZM6 12.5007C2.68629 12.5007 0 9.81405 0 6.49988C0 3.1857 2.68629 0.499023 6 0.499023C9.31371 0.499023 12 3.1857 12 6.49988C12 9.81405 9.31371 12.5007 6 12.5007Z" fill="#007AFF"/>
</svg>
