<svg width="14" height="13" viewBox="0 0 14 13" fill="none" xmlns="http://www.w3.org/2000/svg">
<path fill-rule="evenodd" clip-rule="evenodd" d="M1 6.5C1 3.18629 3.68629 0.5 7 0.5C10.3137 0.5 13 3.18629 13 6.5C13 9.81371 10.3137 12.5 7 12.5C3.68629 12.5 1 9.81371 1 6.5Z" stroke="#4CD964" stroke-width="0.5"/>
<path d="M6.27636 7.77964L9.50203 4.40226C9.69593 4.19925 10.0103 4.19925 10.2042 4.40226C10.3981 4.60527 10.3981 4.93443 10.2042 5.13744L6.27636 9.25L3.99503 6.86137C3.80114 6.65836 3.80114 6.32921 3.99503 6.12619C4.18893 5.92318 4.50329 5.92318 4.69719 6.12619L6.27636 7.77964Z" fill="#4CD964"/>
</svg>
