<svg width="17" height="17" viewBox="0 0 17 17" fill="none" xmlns="http://www.w3.org/2000/svg">
<path fill-rule="evenodd" clip-rule="evenodd" d="M0.665381 0.721826C0.0795949 1.30761 0.079595 2.25736 0.665381 2.84315L6.32224 8.5L0.665381 14.1569C0.0795951 14.7426 0.0795949 15.6924 0.665381 16.2782C1.25117 16.864 2.20092 16.864 2.7867 16.2782L8.44356 10.6213L14.1004 16.2782C14.6862 16.864 15.6359 16.864 16.2217 16.2782C16.8075 15.6924 16.8075 14.7426 16.2217 14.1569L10.5649 8.5L16.2217 2.84315C16.8075 2.25736 16.8075 1.30761 16.2217 0.721826C15.6359 0.136039 14.6862 0.13604 14.1004 0.721826L8.44356 6.37868L2.7867 0.721826C2.20092 0.136039 1.25117 0.136039 0.665381 0.721826Z" fill="#4D4D4D" style="mix-blend-mode:color-burn"/>
<path fill-rule="evenodd" clip-rule="evenodd" d="M0.665381 0.721826C0.0795949 1.30761 0.079595 2.25736 0.665381 2.84315L6.32224 8.5L0.665381 14.1569C0.0795951 14.7426 0.0795949 15.6924 0.665381 16.2782C1.25117 16.864 2.20092 16.864 2.7867 16.2782L8.44356 10.6213L14.1004 16.2782C14.6862 16.864 15.6359 16.864 16.2217 16.2782C16.8075 15.6924 16.8075 14.7426 16.2217 14.1569L10.5649 8.5L16.2217 2.84315C16.8075 2.25736 16.8075 1.30761 16.2217 0.721826C15.6359 0.136039 14.6862 0.13604 14.1004 0.721826L8.44356 6.37868L2.7867 0.721826C2.20092 0.136039 1.25117 0.136039 0.665381 0.721826Z" fill="black" fill-opacity="0.4"/>
</svg>
