<svg width="17" height="17" viewBox="0 0 17 17" fill="none" xmlns="http://www.w3.org/2000/svg">
<path fill-rule="evenodd" clip-rule="evenodd" d="M0.665504 0.721826C0.079717 1.30761 0.0797171 2.25736 0.665503 2.84315L6.32236 8.5L0.665504 14.1569C0.0797172 14.7426 0.079717 15.6924 0.665504 16.2782C1.25129 16.864 2.20104 16.864 2.78682 16.2782L8.44368 10.6213L14.1005 16.2782C14.6863 16.864 15.6361 16.864 16.2219 16.2782C16.8076 15.6924 16.8076 14.7426 16.2219 14.1569L10.565 8.5L16.2219 2.84315C16.8076 2.25736 16.8076 1.30761 16.2219 0.721826C15.6361 0.136039 14.6863 0.13604 14.1005 0.721826L8.44368 6.37868L2.78682 0.721826C2.20104 0.136039 1.25129 0.136039 0.665504 0.721826Z" fill="#4D4D4D" style="mix-blend-mode:color-burn"/>
<path fill-rule="evenodd" clip-rule="evenodd" d="M0.665504 0.721826C0.079717 1.30761 0.0797171 2.25736 0.665503 2.84315L6.32236 8.5L0.665504 14.1569C0.0797172 14.7426 0.079717 15.6924 0.665504 16.2782C1.25129 16.864 2.20104 16.864 2.78682 16.2782L8.44368 10.6213L14.1005 16.2782C14.6863 16.864 15.6361 16.864 16.2219 16.2782C16.8076 15.6924 16.8076 14.7426 16.2219 14.1569L10.565 8.5L16.2219 2.84315C16.8076 2.25736 16.8076 1.30761 16.2219 0.721826C15.6361 0.136039 14.6863 0.13604 14.1005 0.721826L8.44368 6.37868L2.78682 0.721826C2.20104 0.136039 1.25129 0.136039 0.665504 0.721826Z" fill="black" fill-opacity="0.4"/>
</svg>
