<svg width="18" height="18" viewBox="0 0 18 18" fill="none" xmlns="http://www.w3.org/2000/svg">
<path fill-rule="evenodd" clip-rule="evenodd" d="M17.0044 16.4061L12.7741 12.1758C13.8895 10.8846 14.5651 9.19637 14.5651 7.34889C14.5651 3.29021 11.3046 0 7.28255 0C3.26051 0 0 3.29021 0 7.34889C0 11.4076 3.26051 14.6978 7.28255 14.6978C8.80261 14.6978 10.2139 14.2278 11.3815 13.4241L15.684 17.7265C16.0486 18.0912 16.6398 18.0912 17.0044 17.7265C17.369 17.3619 17.369 16.7708 17.0044 16.4061ZM12.6978 7.34861C12.6978 10.3666 10.2733 12.8132 7.28255 12.8132C4.2918 12.8132 1.86732 10.3666 1.86732 7.34861C1.86732 4.33062 4.2918 1.88405 7.28255 1.88405C10.2733 1.88405 12.6978 4.33062 12.6978 7.34861Z" fill="#A3A3A3"/>
</svg>
