<svg width="16" height="22" viewBox="0 0 16 22" fill="none" xmlns="http://www.w3.org/2000/svg">
<path fill-rule="evenodd" clip-rule="evenodd" d="M12 2H15C15.5523 2 16 2.44772 16 3H0C0 2.44772 0.447715 2 1 2H4C4 0.89543 4.89543 0 6 0H10C11.1046 0 12 0.89543 12 2ZM0.947368 3.92063H15.0177L14.3158 20.74C14.3158 20.74 14.0509 22 13.0522 22H2.94695C1.94863 22 1.68379 20.74 1.68379 20.74L0.947368 3.92063ZM11.9 6H10.9L10.4 20.4377H11.4L11.9 6ZM5.5 20.4377L5.00017 6H4L4.49983 20.4377H5.5ZM7.5 6V20.4377H8.5V6H7.5Z" fill="#F3F3F3"/>
</svg>
