<svg width="16" height="16" viewBox="0 0 16 16" fill="none" xmlns="http://www.w3.org/2000/svg">
<path d="M1.48038 1.48038C1.39583 1.56496 1.34439 1.67704 1.3354 1.7963C1.32641 1.91555 1.36046 2.03408 1.43138 2.13038L1.48038 2.18738L4.17038 4.87738C2.85899 5.7963 1.92277 7.15714 1.53338 8.71038C1.50471 8.8378 1.52703 8.97137 1.59557 9.08255C1.66411 9.19372 1.77343 9.27366 1.90015 9.30528C2.02687 9.33689 2.16093 9.31767 2.27366 9.25172C2.38639 9.18577 2.46884 9.07833 2.50338 8.95238C2.84915 7.57382 3.7009 6.3758 4.88938 5.59638L6.09638 6.80338C5.61221 7.30668 5.34477 7.97983 5.35153 8.67818C5.3583 9.37653 5.63872 10.0444 6.13256 10.5382C6.62639 11.032 7.29423 11.3125 7.99258 11.3192C8.69093 11.326 9.36408 11.0586 9.86738 10.5744L13.8134 14.5204C13.9026 14.6092 14.0221 14.6612 14.1479 14.6658C14.2738 14.6704 14.3967 14.6273 14.4922 14.5452C14.5877 14.4631 14.6487 14.348 14.663 14.2229C14.6773 14.0978 14.6439 13.9719 14.5694 13.8704L14.5204 13.8134L10.4454 9.73738V9.73638L9.64538 8.93738L7.73238 7.02438H7.73338L5.81338 5.10538V5.10438L5.05838 4.35038L2.18738 1.48038C2.09362 1.38664 1.96646 1.33398 1.83388 1.33398C1.7013 1.33398 1.57415 1.38664 1.48038 1.48038V1.48038ZM6.80338 7.51038L9.15938 9.86738C8.84469 10.1694 8.42413 10.3361 7.98795 10.3317C7.55176 10.3272 7.13471 10.1519 6.82626 9.84349C6.51782 9.53505 6.34256 9.11799 6.3381 8.68181C6.33363 8.24563 6.50032 7.82507 6.80238 7.51038H6.80338ZM8.00038 3.66738C7.33338 3.66738 6.68638 3.76538 6.07438 3.95038L6.89938 4.77438C8.32579 4.49183 9.80624 4.76821 11.0346 5.54638C12.263 6.32455 13.1454 7.54499 13.4994 8.95538C13.5339 9.08133 13.6164 9.18877 13.7291 9.25472C13.8418 9.32067 13.9759 9.33989 14.1026 9.30828C14.2293 9.27666 14.3387 9.19672 14.4072 9.08555C14.4757 8.97437 14.4981 8.8408 14.4694 8.71338C14.1076 7.27167 13.2746 5.99213 12.1026 5.07793C10.9306 4.16372 9.48678 3.66727 8.00038 3.66738V3.66738ZM8.13038 6.00738L10.6644 8.54038C10.6319 7.87881 10.3545 7.25297 9.88615 6.78461C9.41779 6.31625 8.79195 6.03885 8.13038 6.00638V6.00738Z" fill="black"/>
</svg>
