<svg width="16" height="16" viewBox="0 0 16 16" fill="none" xmlns="http://www.w3.org/2000/svg">
<path d="M7.99971 6.00299C8.34995 6.00299 8.69675 6.07198 9.02033 6.20601C9.3439 6.34003 9.63791 6.53648 9.88557 6.78414C10.1332 7.03179 10.3297 7.3258 10.4637 7.64938C10.5977 7.97295 10.6667 8.31976 10.6667 8.66999C10.6667 9.02023 10.5977 9.36703 10.4637 9.69061C10.3297 10.0142 10.1332 10.3082 9.88557 10.5558C9.63791 10.8035 9.3439 10.9999 9.02033 11.134C8.69675 11.268 8.34995 11.337 7.99971 11.337C7.29238 11.337 6.61402 11.056 6.11386 10.5558C5.6137 10.0557 5.33271 9.37732 5.33271 8.66999C5.33271 7.96266 5.6137 7.2843 6.11386 6.78414C6.61402 6.28398 7.29238 6.00299 7.99971 6.00299V6.00299ZM7.99971 7.00299C7.5576 7.00299 7.13359 7.17862 6.82096 7.49125C6.50834 7.80387 6.33271 8.22788 6.33271 8.66999C6.33271 9.11211 6.50834 9.53612 6.82096 9.84874C7.13359 10.1614 7.5576 10.337 7.99971 10.337C8.44183 10.337 8.86584 10.1614 9.17846 9.84874C9.49108 9.53612 9.66671 9.11211 9.66671 8.66999C9.66671 8.22788 9.49108 7.80387 9.17846 7.49125C8.86584 7.17862 8.44183 7.00299 7.99971 7.00299ZM7.99971 3.66699C11.0757 3.66699 13.7297 5.76699 14.4667 8.70999C14.4843 8.77426 14.4889 8.84139 14.4802 8.90746C14.4715 8.97352 14.4497 9.03718 14.4161 9.0947C14.3824 9.15222 14.3376 9.20243 14.2843 9.24238C14.231 9.28233 14.1702 9.31122 14.1055 9.32735C14.0409 9.34348 13.9737 9.34653 13.9078 9.33631C13.842 9.32609 13.7788 9.30281 13.7221 9.26784C13.6654 9.23287 13.6162 9.18691 13.5775 9.13267C13.5388 9.07843 13.5113 9.017 13.4967 8.95199C13.1873 7.72827 12.4784 6.64278 11.4823 5.8675C10.4862 5.09222 9.25989 4.67148 7.99765 4.67194C6.73541 4.6724 5.50942 5.09403 4.51389 5.87003C3.51837 6.64604 2.81025 7.73204 2.50171 8.95599C2.46872 9.08379 2.38654 9.19337 2.27309 9.26081C2.15963 9.32826 2.02411 9.34812 1.89608 9.31604C1.76804 9.28397 1.65789 9.20257 1.58963 9.0896C1.52137 8.97663 1.50055 8.84125 1.53171 8.71299C1.89341 7.27145 2.72627 5.99203 3.89808 5.07785C5.06988 4.16366 6.51349 3.6671 7.99971 3.66699Z" fill="black"/>
</svg>
