<svg width="14" height="14" viewBox="0 0 14 14" fill="none" xmlns="http://www.w3.org/2000/svg">
<path d="M0.480381 0.480378C0.395828 0.564956 0.34439 0.677039 0.3354 0.796295C0.32641 0.915551 0.360463 1.03408 0.431381 1.13038L0.480381 1.18738L3.17038 3.87738C1.85899 4.7963 0.922769 6.15714 0.533381 7.71038C0.504709 7.8378 0.52703 7.97137 0.595571 8.08255C0.664112 8.19372 0.773432 8.27366 0.900151 8.30528C1.02687 8.33689 1.16093 8.31767 1.27366 8.25172C1.38639 8.18577 1.46884 8.07833 1.50338 7.95238C1.84915 6.57382 2.7009 5.3758 3.88938 4.59638L5.09638 5.80338C4.61221 6.30668 4.34477 6.97983 4.35153 7.67818C4.3583 8.37653 4.63872 9.04437 5.13256 9.5382C5.62639 10.032 6.29423 10.3125 6.99258 10.3192C7.69093 10.326 8.36408 10.0586 8.86738 9.57438L12.8134 13.5204C12.9026 13.6092 13.0221 13.6612 13.1479 13.6658C13.2738 13.6704 13.3967 13.6273 13.4922 13.5452C13.5877 13.4631 13.6487 13.348 13.663 13.2229C13.6773 13.0978 13.6439 12.9719 13.5694 12.8704L13.5204 12.8134L9.44538 8.73738V8.73638L8.64538 7.93738L6.73238 6.02438H6.73338L4.81338 4.10538V4.10438L4.05838 3.35038L1.18738 0.480378C1.09362 0.386642 0.966464 0.333984 0.833881 0.333984C0.701299 0.333984 0.574145 0.386642 0.480381 0.480378ZM5.80338 6.51038L8.15938 8.86738C7.84469 9.16944 7.42413 9.33613 6.98795 9.33166C6.55176 9.3272 6.13471 9.15194 5.82626 8.84349C5.51782 8.53505 5.34256 8.11799 5.3381 7.68181C5.33363 7.24563 5.50032 6.82507 5.80238 6.51038H5.80338ZM7.00038 2.66738C6.33338 2.66738 5.68638 2.76538 5.07438 2.95038L5.89938 3.77438C7.32579 3.49183 8.80624 3.76821 10.0346 4.54638C11.263 5.32455 12.1454 6.54499 12.4994 7.95538C12.5339 8.08133 12.6164 8.18877 12.7291 8.25472C12.8418 8.32067 12.9759 8.33989 13.1026 8.30828C13.2293 8.27666 13.3387 8.19672 13.4072 8.08555C13.4757 7.97437 13.4981 7.8408 13.4694 7.71338C13.1076 6.27167 12.2746 4.99213 11.1026 4.07793C9.93061 3.16372 8.48678 2.66727 7.00038 2.66738ZM7.13038 5.00738L9.66438 7.54038C9.63191 6.87881 9.35451 6.25297 8.88615 5.78461C8.41779 5.31625 7.79195 5.03885 7.13038 5.00638V5.00738Z" fill="black"/>
</svg>
